<?xml version="1.0" encoding="UTF-8" standalone="no"?>
<svg width="244px" height="283px" viewBox="0 0 244 283" version="1.1" xmlns="http://www.w3.org/2000/svg" xmlns:xlink="http://www.w3.org/1999/xlink" xmlns:sketch="http://www.bohemiancoding.com/sketch/ns">
    <!-- Generator: Sketch 3.4.1 (15681) - http://www.bohemiancoding.com/sketch -->
    <title>Artboard</title>
    <desc>Created with Sketch.</desc>
    <defs></defs>
    <g id="Page-1" stroke="none" stroke-width="1" fill="none" fill-rule="evenodd" sketch:type="MSPage">
        <g id="Artboard" sketch:type="MSArtboardGroup" fill="#FFFFFF">
            <g id="collaboration" sketch:type="MSLayerGroup">
                <path d="M130.9,282.6 L130.7,282.6 C99.3,282.5 78.5,270 59,239.1 L2.4,143.6 C-2.4,134.1 0.2,124.4 8.6,119.9 C17.4,115.2 27.1,117.7 33.3,126.3 C34.4,127.8 38,132.6 42.6,138.8 C46,143.4 50.1,148.8 54.3,154.5 L54.5,154.8 C57.4,159 61.1,163.9 65.4,169.7 C67.4,172.4 69.6,175.3 71.9,178.4 L93.6,210 L111.8,238.5 C112.5,239.7 113.4,240.5 114.4,240.7 C115,240.9 115.6,240.8 116.2,240.4 C117.4,239.7 118.4,238.7 116.9,235.9 L105,210.8 C104.1,209.1 104.7,207 106.3,205.8 C107.9,204.7 110.1,204.9 111.5,206.4 L140.2,243.7 C141.2,244.8 143,245.7 144.5,245.8 C145.4,245.9 146.1,245.6 146.7,245.2 C148.6,243.5 148,240.5 146.5,238.5 L122.4,204.2 C121.3,202.7 121.4,200.6 122.9,199.2 C124.4,197.8 126.6,197.9 128.1,199.3 L161.8,234.6 C162.8,235.7 164.4,236.5 165.8,236.5 C166.5,236.6 167.6,236.4 168.4,235.7 C170.3,234.1 169.7,231.1 168.1,229.2 L132.4,190.2 C131.1,188.7 131.1,186.6 132.4,185.2 C133.7,183.8 135.7,183.6 137.3,184.6 L167.8,207.8 C170.2,209.4 173.5,210.2 175.1,208.2 C175.6,207.6 175.8,206.9 175.7,206 C175.5,204.4 174.4,202.5 172.8,201.3 L129,164.4 C124.9,161.2 123.2,157.3 124.4,153.9 C125.6,150.4 129.6,148.5 134.9,148.6 C143.3,148.9 152.5,149 157.3,149.1 L160.4,149.2 C165,149.4 166.1,146.2 166.3,144.8 C166.7,142.4 165,140.4 162.1,139.8 L104.6,132.7 C99.3,132.2 93.2,131.6 87.2,131.3 L84.7,131.2 L87.8,42.5 C87.9,37.1 90,32 93.4,28.7 C96.5,25.8 100.4,24.2 104.9,24.4 C114.4,24.7 121.4,32.4 121.9,43.2 L123.1,112.6 L139,14.3 C140.8,5 149.9,-1.1 159.1,0.6 C168.3,2.3 174.6,11.4 172.9,20.5 L160.3,110.4 L181.6,37.2 C184,28 192.5,22.6 201.7,24.3 C206.2,25.1 210.1,27.9 212.7,32.1 C215.1,36 216,40.7 215.2,45 L193,131.8 L193.3,131.8 L193.4,131.8 L215.3,88.8 C219.3,80.5 226.4,77.3 234.3,80.3 C238,81.7 240.8,84.5 242.3,88 C243.8,91.7 243.8,95.8 242.2,99.6 L221.2,157.2 L201.7,226.9 C189.7,266.5 169.2,282.6 130.9,282.6 L130.9,282.6 Z M17.6,122.7 C15.4,122.7 13.2,123.3 11,124.5 C5.2,127.7 3.5,134.4 6.9,141.2 L63.3,236.5 C81.9,265.9 100.8,277.4 130.6,277.5 L130.8,277.5 C166.9,277.5 185.3,262.9 196.5,225.4 L216,155.6 L237.1,97.7 C238.2,95.1 238.2,92.4 237.3,90.1 C236.4,87.9 234.6,86.1 232.3,85.2 C227,83.2 222.7,85.3 219.9,91.2 L198.1,134.1 C196.9,136.5 194.2,137.7 191.6,136.8 C189,135.9 187.5,133.5 188,130.8 L210.2,44 C210.7,41.2 210.1,37.8 208.3,35 C206.5,32.1 203.8,30.2 200.8,29.6 C194.3,28.4 188.4,32.3 186.7,38.8 L164.8,114.3 C164.1,116.9 161.6,118.4 158.9,117.9 C156.2,117.4 154.6,115 154.9,112.3 L167.8,20 C168.9,13.7 164.4,7.2 158.1,6 C151.6,4.8 145.3,9 144.1,15.5 L127.6,117 C127.1,119.6 124.9,121.2 122.3,121 C119.8,120.8 117.9,118.8 117.8,116.3 L116.5,43.6 C116.1,35.7 111.2,30 104.5,29.8 C101.5,29.7 98.8,30.7 96.7,32.7 C94.2,35.1 92.7,38.8 92.7,42.9 L89.8,126.6 C95,127 100.2,127.4 104.8,127.9 L109.2,128.3 L162.6,135.1 C168.5,136.3 171.9,140.8 171,146 C170,151.5 165.7,154.9 159.8,154.7 L156.8,154.6 C152,154.5 142.7,154.4 134.3,154.1 C131,154 129.2,155 128.8,156 C128.5,156.9 129.2,158.8 131.7,160.7 L175.5,197.6 C178.1,199.7 180,202.9 180.3,205.8 C180.5,208.1 179.9,210.2 178.5,211.9 C175.3,215.8 169.3,216 164.1,212.4 L146.9,199.3 L171.5,226.1 C175.3,230.5 175.2,236.5 171.4,239.9 C169.7,241.4 167.5,242.2 165.1,242 C162.2,241.8 159.4,240.5 157.5,238.4 L137.1,217 L150.3,235.7 C153.7,240.1 153.5,246 149.7,249.3 C148.1,250.7 146.1,251.4 143.8,251.3 C140.8,251.1 137.8,249.6 135.8,247.4 L114.3,219.6 L121.2,234 C123.5,238.6 122.6,242.8 118.5,245.2 C116.7,246.3 114.7,246.6 112.7,246 C110.4,245.4 108.3,243.7 107,241.4 L88.9,213.1 L67.3,181.7 C65.1,178.7 62.9,175.8 60.9,173.1 C56.6,167.4 52.9,162.4 50,158.2 L49.9,158.1 C45.6,152.3 41.5,146.9 38.1,142.2 C33.3,135.8 29.9,131.2 28.8,129.6 C25.9,125 21.9,122.7 17.6,122.7 L17.6,122.7 Z" id="Shape" sketch:type="MSShapeGroup"></path>
            </g>
        </g>
    </g>
</svg>