<?xml version="1.0" encoding="UTF-8" standalone="no"?>
<svg width="290px" height="167px" viewBox="0 0 290 167" version="1.1" xmlns="http://www.w3.org/2000/svg" xmlns:xlink="http://www.w3.org/1999/xlink" xmlns:sketch="http://www.bohemiancoding.com/sketch/ns">
    <!-- Generator: Sketch 3.4.1 (15681) - http://www.bohemiancoding.com/sketch -->
    <title>diversity</title>
    <desc>Created with Sketch.</desc>
    <defs></defs>
    <g id="Page-1" stroke="none" stroke-width="1" fill="none" fill-rule="evenodd" sketch:type="MSPage">
        <g id="diversity" sketch:type="MSLayerGroup" fill="#FFFFFF">
            <g id="Group" sketch:type="MSShapeGroup">
                <path d="M289.1,150.5 L222.2,150.5 L221.9,148.4 C219.6,131.3 212.1,116.3 200.2,105 L198.3,103.2 L200.3,101.5 C209.8,93.2 222,88.7 234.4,88.7 C264,88.7 289,115.9 289,148.1 L289.1,150.5 L289.1,150.5 L289.1,150.5 Z M226.3,145.7 L284.2,145.7 C283,117.1 260.7,93.4 234.4,93.4 C223.8,93.4 213.8,96.9 205.4,103.4 C216.6,114.9 223.8,129.4 226.3,145.7 L226.3,145.7 Z" id="Shape"></path>
                <path d="M234.8,81 C218.2,81 204.7,67.5 204.7,50.9 C204.7,34.3 218.2,20.8 234.8,20.8 C251.4,20.8 264.9,34.3 264.9,50.9 C264.9,67.4 251.4,81 234.8,81 L234.8,81 Z M234.8,25.4 C220.8,25.4 209.4,36.8 209.4,50.8 C209.4,64.8 220.8,76.2 234.8,76.2 C248.8,76.2 260.2,64.8 260.2,50.8 C260.2,36.8 248.8,25.4 234.8,25.4 L234.8,25.4 Z" id="Shape"></path>
                <path d="M67.6,150.7 L0.7,150.7 L0.7,148.3 C0.7,116.5 26.2,88.6 55.3,88.6 C67.8,88.6 79.7,93.4 89.7,102.3 L91.6,104 L89.7,105.8 C77.6,117.3 70,132.1 67.7,148.6 L67.6,150.7 L67.6,150.7 Z M5.6,145.9 L63.5,145.9 C66.1,130 73.4,115.7 84.7,104.2 C76,97.1 65.9,93.3 55.4,93.3 C29.5,93.3 6.8,117.6 5.6,145.9 L5.6,145.9 Z" id="Shape"></path>
                <path d="M57.2,81 C40.6,81 27.1,67.5 27.1,50.9 C27.1,34.3 40.6,20.8 57.2,20.8 C73.8,20.8 87.3,34.3 87.3,50.9 C87.4,67.4 73.8,81 57.2,81 L57.2,81 Z M57.2,25.4 C43.2,25.4 31.8,36.8 31.8,50.8 C31.8,64.8 43.2,76.2 57.2,76.2 C71.2,76.2 82.6,64.8 82.6,50.8 C82.6,36.8 71.2,25.4 57.2,25.4 L57.2,25.4 Z" id="Shape"></path>
                <path d="M145.1,75.5 C124.5,75.5 107.8,58.8 107.8,38.2 C107.8,17.6 124.5,0.9 145.1,0.9 C165.7,0.9 182.4,17.6 182.4,38.2 C182.4,58.8 165.6,75.5 145.1,75.5 L145.1,75.5 Z M145.1,5.7 C127.2,5.7 112.6,20.3 112.6,38.2 C112.6,56.1 127.2,70.7 145.1,70.7 C163,70.7 177.6,56.1 177.6,38.2 C177.6,20.3 163,5.7 145.1,5.7 L145.1,5.7 Z" id="Shape"></path>
                <path d="M213.4,166.5 L77.3,166.5 L77.3,164.1 C77.3,122.8 107.8,89.2 145.4,89.2 C183,89.2 213.5,122.8 213.5,164.1 L213.5,166.5 L213.4,166.5 L213.4,166.5 Z M82.1,161.7 L208.6,161.7 C207.5,124.1 179.5,93.9 145.3,93.9 C111.1,93.9 83.2,124.1 82.1,161.7 L82.1,161.7 Z" id="Shape"></path>
            </g>
        </g>
    </g>
</svg>