<?xml version="1.0" encoding="UTF-8" standalone="no"?>
<svg width="233px" height="233px" viewBox="0 0 233 233" version="1.1" xmlns="http://www.w3.org/2000/svg" xmlns:xlink="http://www.w3.org/1999/xlink" xmlns:sketch="http://www.bohemiancoding.com/sketch/ns">
    <!-- Generator: Sketch 3.4.1 (15681) - http://www.bohemiancoding.com/sketch -->
    <title>engagement</title>
    <desc>Created with Sketch.</desc>
    <defs></defs>
    <g id="Page-1" stroke="none" stroke-width="1" fill="none" fill-rule="evenodd" sketch:type="MSPage">
        <g id="engagement" sketch:type="MSLayerGroup" fill="#FFFFFF">
            <g id="Group" sketch:type="MSShapeGroup">
                <rect id="Rectangle-path" transform="translate(116.710380, 71.430860) rotate(63.434949) translate(-116.710380, -71.430860) " x="114.310453" y="-6.4667718" width="4.79985408" height="155.795264"></rect>
                <rect id="Rectangle-path" transform="translate(116.686500, 161.878600) rotate(26.565051) translate(-116.686500, -161.878600) " x="38.7888682" y="159.478673" width="155.795264" height="4.79985408"></rect>
                <path d="M207.1,232.8 C193,232.8 181.5,221.3 181.5,207.2 C181.5,193.1 193,181.6 207.1,181.6 C221.2,181.6 232.7,193.1 232.7,207.2 C232.7,221.3 221.3,232.8 207.1,232.8 L207.1,232.8 Z M207.1,186.3 C195.6,186.3 186.3,195.6 186.3,207.1 C186.3,218.6 195.6,227.9 207.1,227.9 C218.6,227.9 228,218.6 228,207.1 C228,195.7 218.6,186.3 207.1,186.3 L207.1,186.3 Z" id="Shape"></path>
                <path d="M49.2,128.2 L44.9,126 C46.4,123.1 47.1,120 47.1,116.7 C47.1,113.4 46.4,110.3 44.9,107.4 L49.2,105.2 C51,108.8 51.9,112.6 51.9,116.7 C51.9,120.7 51,124.6 49.2,128.2 L49.2,128.2 Z" id="Shape"></path>
                <path d="M26.2,142.3 C12.1,142.3 0.6,130.8 0.6,116.7 C0.6,102.6 12.1,91.1 26.2,91.1 C36,91.1 44.8,96.5 49.1,105.3 L44.8,107.5 C41.2,100.4 34.1,96 26.2,96 C14.7,96 5.4,105.3 5.4,116.8 C5.4,128.3 14.7,137.6 26.2,137.6 C34.1,137.6 41.3,133.2 44.8,126.1 L49.1,128.3 C44.8,136.9 36,142.3 26.2,142.3 L26.2,142.3 Z" id="Shape"></path>
                <path d="M207.1,51.9 C193,51.9 181.5,40.4 181.5,26.3 C181.5,12.2 193,0.7 207.1,0.7 C221.2,0.7 232.7,12.2 232.7,26.3 C232.7,40.4 221.3,51.9 207.1,51.9 L207.1,51.9 Z M207.1,5.4 C195.6,5.4 186.3,14.7 186.3,26.2 C186.3,37.7 195.6,47 207.1,47 C218.6,47 227.9,37.7 227.9,26.2 C227.9,14.7 218.6,5.4 207.1,5.4 L207.1,5.4 Z" id="Shape"></path>
            </g>
        </g>
    </g>
</svg>