<?xml version="1.0" encoding="UTF-8" standalone="no"?>
<svg width="263px" height="293px" viewBox="0 0 263 293" version="1.1" xmlns="http://www.w3.org/2000/svg" xmlns:xlink="http://www.w3.org/1999/xlink" xmlns:sketch="http://www.bohemiancoding.com/sketch/ns">
    <!-- Generator: Sketch 3.4.1 (15681) - http://www.bohemiancoding.com/sketch -->
    <title>impact</title>
    <desc>Created with Sketch.</desc>
    <defs></defs>
    <g id="Page-1" stroke="none" stroke-width="1" fill="none" fill-rule="evenodd" sketch:type="MSPage">
        <g id="impact" sketch:type="MSLayerGroup" fill="#FFFFFF">
            <g id="Group" sketch:type="MSShapeGroup">
                <path d="M15.4,217.9 C14.7,217.9 14.1,217.7 13.6,217.1 C12.6,216.1 12.6,214.5 13.6,213.5 L30.9,196.2 C31.9,195.2 33.5,195.2 34.5,196.2 C35.5,197.2 35.5,198.8 34.5,199.8 L17.2,217.1 C16.7,217.6 16,217.9 15.4,217.9 L15.4,217.9 Z" id="Shape"></path>
                <g>
                    <path d="M119.4,239.2 C53.6,239.2 0.1,185.7 0.1,119.9 C0.1,54.1 53.6,0.6 119.4,0.6 C185.2,0.6 238.7,54.1 238.7,119.9 C238.7,185.7 185.2,239.2 119.4,239.2 L119.4,239.2 Z M119.4,5.8 C56.5,5.8 5.3,57 5.3,120 C5.3,183 56.5,234.2 119.4,234.2 C182.3,234.2 233.6,183 233.6,120 C233.6,57 182.3,5.8 119.4,5.8 L119.4,5.8 Z" id="Shape"></path>
                    <path d="M119.4,263.6 C79.2,263.6 40.6,246.6 13.5,217 C12.5,216 12.6,214.3 13.7,213.4 C14.7,212.4 16.4,212.5 17.3,213.6 C43.5,242.2 80.7,258.5 119.4,258.5 C195.8,258.5 257.9,196.4 257.9,120 C257.9,81.3 241.5,44 212.9,17.8 C211.9,16.8 211.8,15.2 212.7,14.2 C213.7,13.1 215.3,13.1 216.3,14 C245.9,41.2 262.9,79.8 262.9,120 C263.1,199.2 198.6,263.6 119.4,263.6 L119.4,263.6 Z" id="Shape"></path>
                    <path d="M197.5,35.7 C196.8,35.7 196.2,35.5 195.7,34.9 C194.7,33.9 194.7,32.3 195.7,31.3 L213,14 C214,13 215.6,13 216.6,14 C217.6,15 217.6,16.6 216.6,17.6 L199.3,34.9 C198.8,35.5 198.1,35.7 197.5,35.7 L197.5,35.7 Z" id="Shape"></path>
                    <rect id="Rectangle-path" x="123.8" y="261" width="5.1" height="29.1"></rect>
                    <path d="M155.8,292.8 L96.6,292.8 C95.2,292.8 94,291.6 94,290.2 C94,288.8 95.2,287.6 96.6,287.6 L155.8,287.6 C157.2,287.6 158.4,288.8 158.4,290.2 C158.4,291.6 157.2,292.8 155.8,292.8 L155.8,292.8 Z" id="Shape"></path>
                    <path d="M157.6,199.7 C157,199.7 156.2,199.6 155.6,199.4 C153.8,198.8 152.3,197.5 151.4,195.8 L145.2,182.2 C144.7,181 144.5,179.4 144.7,178.1 L146.5,170.3 L142,158 L140.1,156.7 L123.6,156.7 C121.8,156.7 120.2,156 118.9,154.8 L113.5,149.6 C113,149.1 112.5,148.5 112.2,148 L112.1,147.8 L107.4,137.8 C106.9,136.6 106.6,135 106.9,133.7 L108.3,124.8 C108.5,123.6 109.1,122.2 110,121.3 L125.9,102.9 C127.2,101.4 129.1,100.6 131,100.6 L148.8,100.6 C150.5,100.6 152.1,101.3 153.3,102.5 C154.8,104 155.2,105.2 155.2,109.3 L174.8,109.3 C177.6,108.9 180.2,110.3 181.4,112.9 L189.8,131.2 L197.3,131.2 C198,131.1 198.7,131.1 199.4,131.2 C200.6,131.4 201.9,132 202.9,133 C204.1,134.2 204.7,135.8 204.7,137.4 C204.7,138.7 204.3,140.1 203.5,141.2 L193.3,159.7 L194.4,172.1 C194.6,174.3 193.7,176.5 192,177.9 C191.9,178 191.8,178.1 191.6,178.2 L161.5,198.5 C160.3,199.3 158.8,199.7 157.6,199.7 L157.6,199.7 Z M116.8,145.4 C116.9,145.5 117,145.7 117.1,145.8 L122.5,151 C122.8,151.3 123.2,151.5 123.6,151.5 L141.8,151.5 L146.3,154.7 L151.9,170 L149.8,179.2 C149.8,179.4 149.8,179.9 149.9,180.1 L156,193.7 C156.2,194.1 156.6,194.4 157,194.5 C157.3,194.6 158.1,194.5 158.4,194.3 L188.4,174.1 C188.9,173.7 189.1,173.2 189.1,172.6 L187.9,158.7 L199.3,138.2 C199.4,138 199.6,137.8 199.6,137.5 C199.6,137.2 199.5,136.9 199.3,136.7 C199.1,136.5 198.9,136.4 198.6,136.4 C198.4,136.4 198.3,136.3 198.1,136.4 L197.6,136.4 L186.6,136.4 L176.9,115.1 C176.6,114.6 176.2,114.3 175.6,114.4 L175.2,114.4 L150.2,114.4 L150.3,111.8 C150.3,110.6 150.4,106.9 150.1,106.3 C150,106.2 149.9,106.1 149.8,106 C149.6,105.8 149.3,105.6 149,105.6 L131.2,105.6 C130.7,105.6 130.3,105.8 129.9,106.2 L113.9,124.6 C113.7,124.8 113.5,125.3 113.5,125.5 L112.1,134.5 C112,134.8 112.1,135.3 112.2,135.5 L116.8,145.4 L116.8,145.4 Z" id="Shape"></path>
                    <path d="M119.4,220.6 C63.9,220.6 18.7,175.5 18.7,120 C18.7,111.3 19.8,102.6 22.1,94.2 L23.7,88.1 L31.6,101.9 C31.7,102.1 31.8,102.2 32,102.3 L47,113.3 L51,131.3 L51,141.5 C51,141.8 51.1,142.1 51.3,142.4 L62.6,156.3 L62.6,183.7 C62.6,184.1 62.7,184.4 63,184.7 L73.9,195.6 C74.3,196 74.9,196.1 75.4,195.9 C75.9,195.7 76.3,195.2 76.3,194.6 L76.3,178.3 L89.2,155.4 L94.5,155.4 C95.3,155.4 95.9,154.8 95.9,154 L95.9,125.5 C95.9,125 95.6,124.5 95.1,124.2 L80.8,116.9 L76.1,112.2 C75.9,112 75.7,111.9 75.4,111.8 L61.9,108.7 L53.5,101.5 L49,88.9 L54.1,88.9 L63.6,98 C63.9,98.2 64.2,98.4 64.6,98.4 L70.3,98.4 C71.1,98.4 71.7,97.8 71.7,97 L72.1,78 L78.4,72 L90.3,70.7 C91,70.6 91.5,70 91.5,69.3 L91.5,63.6 C91.5,63.3 91.4,63.1 91.3,62.8 L86.1,54.6 C85.9,54.2 85.5,54 85.1,54 L74.9,52.8 C74.4,52.7 73.9,53 73.6,53.3 L69.9,58.1 L64.1,58.1 L57.7,54.8 L64.9,44.4 C65.1,44 65.2,43.6 65.1,43.2 C65,42.8 64.7,42.5 64.3,42.3 L57.9,39.8 L61.9,37 C78.8,25.3 98.6,19.1 119.1,19.1 C139.6,19.1 159.4,25.3 176.3,37 L183.9,42.3 L156.5,40.5 C156,40.4 155.5,40.7 155.2,41.2 C154.9,41.6 154.9,42.2 155.2,42.6 L161.4,53.6 L151.2,63.3 C150.9,63.6 150.7,63.9 150.7,64.3 C150.7,64.7 150.8,65.1 151.1,65.3 L162.9,77 C163.2,77.3 163.8,77.5 164.2,77.4 L180.6,73.2 C181,73.1 181.3,72.9 181.5,72.5 C181.7,72.2 181.7,71.8 181.6,71.4 L177.8,58 L187.1,59.2 L197.6,72.5 L194.7,87.8 C194.6,88.2 194.7,88.6 195,88.9 C195.3,89.2 195.7,89.4 196.1,89.4 L215.2,89.4 L215.7,91.2 C218.5,100.6 219.9,110.2 219.9,119.9 C220.1,175.4 174.9,220.6 119.4,220.6 L119.4,220.6 Z M25.6,101.8 C24.4,107.8 23.8,113.9 23.8,120 C23.8,172.7 66.7,215.5 119.3,215.5 C172,215.5 214.8,172.6 214.8,120 C214.8,111.4 213.6,102.9 211.3,94.6 L196.2,94.6 C194.2,94.6 192.4,93.7 191.2,92.2 C190,90.7 189.4,88.7 189.8,86.8 L192.2,73.8 L185.2,65 L186.6,70.1 C187.1,71.8 186.9,73.6 186,75.1 C185.1,76.6 183.7,77.7 182,78.2 L165.6,82.4 C163.4,83 161,82.3 159.4,80.7 L147.6,69 C146.3,67.7 145.6,66 145.7,64.2 C145.7,62.4 146.5,60.7 147.9,59.5 L155.4,52.8 L151.2,45.4 C150,43.3 150.1,40.8 151.3,38.7 C152.6,36.7 154.8,35.5 157.2,35.6 L165.2,36.1 C151.2,28.4 135.6,24.4 119.5,24.4 C101.4,24.4 84,29.4 68.8,39 C69.6,39.8 70.1,40.7 70.5,41.7 C71.1,43.6 70.8,45.7 69.6,47.3 L65.7,52.9 L65.7,52.9 L67.7,52.9 L69.9,50.1 C71.3,48.3 73.6,47.3 75.8,47.6 L85.9,48.8 C87.9,49 89.6,50.1 90.7,51.8 L95.9,60 C96.6,61.1 96.9,62.3 96.9,63.5 L96.9,69.2 C96.9,72.5 94.4,75.3 91.1,75.7 L80.9,76.8 L77.4,80.2 L77.1,97.1 C77,100.6 74.1,103.5 70.6,103.5 L64.9,103.5 C64.5,103.5 64.2,103.5 63.8,103.4 L64.5,104 L76.8,106.8 C78,107.1 79.1,107.7 80,108.6 L84.4,113 L97.7,119.7 C99.9,120.8 101.3,123.1 101.3,125.6 L101.3,154.1 C101.3,157.7 98.4,160.6 94.8,160.6 L92.5,160.6 L81.7,179.7 L81.7,194.6 C81.7,197.3 80.1,199.6 77.7,200.6 C75.3,201.6 72.4,201 70.6,199.2 L59.7,188.3 C58.5,187.1 57.8,185.4 57.8,183.7 L57.8,158.1 L47.6,145.6 C46.6,144.4 46.1,143 46.1,141.5 L46.1,131.6 L42.6,116.3 L29.1,106.5 C28.4,106 27.7,105.2 27.3,104.5 L25.6,101.8 L25.6,101.8 Z" id="Shape"></path>
                </g>
            </g>
        </g>
    </g>
</svg>