<?xml version="1.0" encoding="UTF-8" standalone="no"?>
<svg width="309px" height="297px" viewBox="0 0 309 297" version="1.1" xmlns="http://www.w3.org/2000/svg" xmlns:xlink="http://www.w3.org/1999/xlink" xmlns:sketch="http://www.bohemiancoding.com/sketch/ns">
    <!-- Generator: Sketch 3.4.1 (15681) - http://www.bohemiancoding.com/sketch -->
    <title>innovation</title>
    <desc>Created with Sketch.</desc>
    <defs></defs>
    <g id="Page-1" stroke="none" stroke-width="1" fill="none" fill-rule="evenodd" sketch:type="MSPage">
        <g id="innovation" sketch:type="MSLayerGroup" fill="#FFFFFF">
            <g id="Group" sketch:type="MSShapeGroup">
                <path d="M176.3,269.8 L132.9,269.8 C128,269.8 123.9,265.8 123.9,260.8 C123.9,255.9 127.9,251.8 132.9,251.8 L176.3,251.8 C181.2,251.8 185.3,255.8 185.3,260.8 C185.3,265.8 181.3,269.8 176.3,269.8 L176.3,269.8 Z M132.9,258.2 C131.4,258.2 130.2,259.4 130.2,260.9 C130.2,262.4 131.4,263.6 132.9,263.6 L176.3,263.6 C177.8,263.6 179,262.4 179,260.9 C179,259.4 177.8,258.2 176.3,258.2 L132.9,258.2 L132.9,258.2 Z" id="Shape"></path>
                <path d="M299.6,159.2 L256.2,159.2 C251.3,159.2 247.2,155.2 247.2,150.2 C247.2,145.3 251.2,141.2 256.2,141.2 L299.6,141.2 C304.5,141.2 308.6,145.2 308.6,150.2 C308.6,155.2 304.6,159.2 299.6,159.2 L299.6,159.2 Z M256.2,147.6 C254.7,147.6 253.5,148.8 253.5,150.3 C253.5,151.8 254.7,153 256.2,153 L299.6,153 C301.1,153 302.3,151.8 302.3,150.3 C302.3,148.8 301.1,147.6 299.6,147.6 L256.2,147.6 L256.2,147.6 Z" id="Shape"></path>
                <path d="M154.6,61.6 C149.7,61.6 145.6,57.6 145.6,52.6 L145.6,9.2 C145.6,4.3 149.6,0.2 154.6,0.2 C159.5,0.2 163.6,4.2 163.6,9.2 L163.6,52.6 C163.6,57.6 159.5,61.6 154.6,61.6 L154.6,61.6 Z M154.6,6.5 C153.1,6.5 151.9,7.7 151.9,9.2 L151.9,52.6 C151.9,54.1 153.1,55.3 154.6,55.3 C156.1,55.3 157.3,54.1 157.3,52.6 L157.3,9.2 C157.3,7.7 156.1,6.5 154.6,6.5 L154.6,6.5 Z" id="Shape"></path>
                <path d="M226.9,91.3 C224.6,91.3 222.3,90.4 220.6,88.7 C217.1,85.2 217.1,79.5 220.6,76 L251.3,45.3 C254.8,41.8 260.5,41.8 264,45.3 C265.7,47 266.6,49.2 266.6,51.6 C266.6,54 265.7,56.2 264,57.9 L233.3,88.6 C231.5,90.4 229.2,91.3 226.9,91.3 L226.9,91.3 Z M225,80.4 C223.9,81.4 224,83.2 225,84.2 C226,85.2 227.8,85.3 228.8,84.2 L259.5,53.5 C260.5,52.5 260.5,50.7 259.5,49.7 C258.4,48.6 256.7,48.6 255.7,49.7 L225,80.4 L225,80.4 Z" id="Shape"></path>
                <path d="M80.6,93.9 C78.3,93.9 76,93 74.3,91.3 L43.6,60.5 C40.1,57 40.1,51.3 43.6,47.8 C47.1,44.3 52.8,44.3 56.3,47.8 L87,78.5 C90.5,82 90.5,87.7 87,91.2 C85.2,93 82.9,93.9 80.6,93.9 L80.6,93.9 Z M78.7,86.8 C79.8,87.8 81.5,87.8 82.5,86.8 C83.5,85.8 83.5,84 82.5,83 L51.8,52.3 C50.8,51.3 49,51.3 48,52.3 C47,53.4 47,55.1 48,56.1 L78.7,86.8 L78.7,86.8 Z" id="Shape"></path>
                <path d="M53,159.2 L9.6,159.2 C4.7,159.2 0.6,155.2 0.6,150.2 C0.6,145.3 4.6,141.2 9.6,141.2 L53,141.2 C57.9,141.2 62,145.2 62,150.2 C62,155.2 58,159.2 53,159.2 L53,159.2 Z M9.6,147.6 C8.1,147.6 6.9,148.8 6.9,150.3 C6.9,151.8 8.1,153 9.6,153 L53,153 C54.5,153 55.7,151.8 55.7,150.3 C55.7,148.8 54.5,147.6 53,147.6 L9.6,147.6 L9.6,147.6 Z" id="Shape"></path>
                <path d="M154.4,296.4 C138.5,296.4 132,285.4 132,280.8 C132,275.9 136,271.8 141,271.8 L168.2,271.8 C173.1,271.8 177.2,275.8 177.2,280.8 C177.2,283.8 174.9,287.7 171.5,290.6 C168.4,293.2 162.9,296.4 154.4,296.4 L154.4,296.4 Z M141,278.1 C139.5,278.1 138.3,279.3 138.3,280.8 C138.3,281.9 141.8,290.1 154.4,290.1 C167.1,290.1 170.9,281.9 170.9,280.7 C170.9,279.2 169.7,278 168.2,278 L141,278 L141,278.1 L141,278.1 Z" id="Shape"></path>
                <path d="M176.5,247.1 L132.8,247.1 C126,247.1 120.4,241.1 120.4,233.8 L120.4,228.9 C120,223.2 117.1,217.8 112.4,214.4 C89.3,199.9 75.5,174.9 75.5,147.5 C75.5,103.8 111,68.3 154.7,68.3 C175.9,68.3 195.7,76.5 210.7,91.5 C225.7,106.5 233.9,126.3 233.9,147.5 C233.9,172.4 221.9,196.2 201.9,211.1 C200.5,212.1 199.1,213.1 197.7,214 L197.2,214.3 C192,218 188.9,224 188.9,230.4 L188.9,234.4 L188.8,234.4 C188.6,241.4 183.1,247.1 176.5,247.1 L176.5,247.1 Z M154.6,74.6 C114.4,74.6 81.7,107.3 81.7,147.5 C81.7,172.7 94.5,195.7 115.9,209.2 C122.3,213.8 126.1,220.9 126.7,228.7 L126.7,233.8 C126.7,237.7 129.4,240.8 132.8,240.8 L176.5,240.8 C179.9,240.8 182.6,237.7 182.6,233.8 L182.6,226.4 L183,226.5 C183.8,221.3 186.2,216.4 189.8,212.5 L189,212.1 L193.6,209.1 C195.1,208.1 196.6,207.1 198.1,206 C216.5,192.3 227.6,170.4 227.6,147.4 C227.6,127.9 220,109.6 206.2,95.8 C192.4,82.2 174.1,74.6 154.6,74.6 L154.6,74.6 Z" id="Shape"></path>
            </g>
        </g>
    </g>
</svg>