<?xml version="1.0" encoding="UTF-8" standalone="no"?>
<svg width="285px" height="285px" viewBox="0 0 285 285" version="1.1" xmlns="http://www.w3.org/2000/svg" xmlns:xlink="http://www.w3.org/1999/xlink" xmlns:sketch="http://www.bohemiancoding.com/sketch/ns">
    <!-- Generator: Sketch 3.4.1 (15681) - http://www.bohemiancoding.com/sketch -->
    <title>Artboard</title>
    <desc>Created with Sketch.</desc>
    <defs></defs>
    <g id="Page-1" stroke="none" stroke-width="1" fill="none" fill-rule="evenodd" sketch:type="MSPage">
        <g id="Artboard" sketch:type="MSArtboardGroup" fill="#FFFFFF">
            <g id="responsibility" sketch:type="MSLayerGroup">
                <path d="M71.5,284.7 C56,284.7 41.4,278.7 30.5,267.7 L17.6,254.8 C-5,232.2 -5,195.4 17.6,172.8 L43.4,147 C60.6,129.8 87.1,125.3 109.2,135.8 L113.2,137.7 L47.8,203.1 C41.9,209 41.9,218.6 47.8,224.5 L60.7,237.4 C66.6,243.3 76.2,243.3 82.1,237.4 L147.5,172 L149.4,176 C159.9,198.2 155.4,224.6 138.3,241.8 L112.4,267.6 C101.6,278.7 87,284.7 71.5,284.7 L71.5,284.7 Z M84.2,136.4 C70.8,136.4 57.6,141.6 47.8,151.4 L22,177.2 C1.8,197.4 1.8,230.2 22,250.3 L34.9,263.2 C44.6,272.9 57.6,278.3 71.5,278.3 C85.3,278.3 98.3,272.9 108.1,263.2 L134,237.4 C148.2,223.2 152.7,201.8 145.7,182.9 L86.8,241.8 C78.4,250.2 64.8,250.2 56.5,241.8 L43.6,228.9 C35.3,220.5 35.3,206.9 43.6,198.6 L102.5,139.7 C96.5,137.5 90.3,136.4 84.2,136.4 L84.2,136.4 Z M84.4,218.2 L67,200.8 L200.8,67.1 L218.2,84.5 L84.4,218.2 L84.4,218.2 Z M76,200.9 L84.5,209.4 L209.2,84.5 L200.7,76 L76,200.9 L76,200.9 Z M201,155.3 C192.5,155.3 184,153.5 176,149.7 L172,147.8 L237.4,82.4 C243.3,76.5 243.3,66.9 237.4,61 L224.5,48.1 C218.6,42.2 209,42.2 203.1,48.1 L137.7,113.5 L135.8,109.5 C125.3,87.3 129.8,60.9 147,43.7 L172.9,17.8 C195.5,-4.8 232.3,-4.8 254.9,17.8 L267.8,30.7 C290.4,53.3 290.4,90.1 267.8,112.7 L242,138.6 C230.8,149.5 216,155.3 201,155.3 L201,155.3 Z M182.8,145.7 C201.7,152.7 223.1,148.2 237.3,134 L263.1,108.1 C283.3,87.9 283.3,55.1 263.1,35 L250.2,22.1 C230,1.9 197.2,1.9 177.1,22.1 L151.2,48 C137,62.2 132.5,83.6 139.5,102.5 L198.4,43.6 C206.7,35.2 220.3,35.2 228.7,43.6 L241.6,56.5 C250,64.9 250,78.5 241.6,86.8 L182.8,145.7 L182.8,145.7 Z" id="Shape" sketch:type="MSShapeGroup"></path>
            </g>
        </g>
    </g>
</svg>