<?xml version="1.0" encoding="UTF-8" standalone="no"?>
<svg width="287px" height="295px" viewBox="0 0 287 295" version="1.1" xmlns="http://www.w3.org/2000/svg" xmlns:xlink="http://www.w3.org/1999/xlink" xmlns:sketch="http://www.bohemiancoding.com/sketch/ns">
    <!-- Generator: Sketch 3.4.1 (15681) - http://www.bohemiancoding.com/sketch -->
    <title>Artboard</title>
    <desc>Created with Sketch.</desc>
    <defs></defs>
    <g id="Page-1" stroke="none" stroke-width="1" fill="none" fill-rule="evenodd" sketch:type="MSPage">
        <g id="Artboard" sketch:type="MSArtboardGroup" fill="#FFFFFF">
            <g id="sustainability" sketch:type="MSLayerGroup">
                <path d="M143.6,0.7 C127.5,0.7 114.4,13.3 113.4,29.2 C83,36.2 56.4,53.4 37.6,77.1 C36.6,78.5 36.8,80.7 38.1,81.7 C39.5,82.7 41.7,82.5 42.7,81.2 C60.3,58.9 85.2,42.7 113.7,35.8 C116.1,50.1 128.6,61 143.5,61 C158.4,61 170.9,50.1 173.3,35.8 C201.8,42.6 226.7,58.9 244.2,81.2 C245.4,82.5 247.6,82.7 248.8,81.7 C250.2,80.7 250.4,78.5 249.4,77.1 C230.6,53.4 204,36.3 173.6,29.3 C172.9,13.5 159.8,0.7 143.6,0.7 L143.6,0.7 L143.6,0.7 Z M143.6,7.1 C156.7,7.1 167.3,17.9 167.3,31 C167.3,44.1 156.7,54.7 143.6,54.7 C130.4,54.7 119.9,44.1 119.9,31 C120,17.9 130.4,7.1 143.6,7.1 L143.6,7.1 L143.6,7.1 Z M265.7,108.9 C263.7,109.1 262.2,111.6 263,113.4 C268.8,128.1 272.1,144.1 272.1,161 C272.1,173.8 270.1,186.1 266.8,197.7 C253.2,192.6 237.6,197.9 230,210.8 C222.6,223.8 225.7,240 236.8,249.3 C217.4,269.7 191.4,283.9 162.2,288.1 C160.5,288.3 159.2,290.2 159.4,291.8 C159.6,293.5 161.4,294.9 163.1,294.7 C194.3,290.2 221.9,275 242.5,253 C256.7,260.2 274.3,255.1 282.4,241 C290.4,227.1 286,209.2 272.7,200.5 C276.5,188 278.6,174.7 278.6,160.9 C278.6,143.3 275.2,126.4 269.1,111 C268.6,109.7 267.1,108.8 265.7,108.9 L265.7,108.9 L265.7,108.9 Z M20.7,109 C19.5,109.1 18.5,110 18,111.1 C12,126.5 8.5,143.4 8.5,161 C8.5,174.7 10.7,188 14.5,200.6 C1,209.3 -3.4,227.2 4.8,241.1 C12.8,255.1 30.6,260.2 44.8,252.9 C65.2,274.9 93,290.1 124.1,294.7 C125.8,294.9 127.6,293.5 127.8,291.8 C128,290.2 126.8,288.3 125,288.1 C95.8,283.9 69.6,269.8 50.3,249.2 C61.4,240 64.7,223.8 57.1,210.8 C49.7,197.9 34,192.6 20.4,197.7 C16.9,186.1 15.1,173.7 15.1,161 C15.1,144.2 18.2,128.2 24,113.5 C24.8,111.5 23.2,109 21,109 C21,109 20.9,109 20.7,109 L20.7,109 L20.7,109 Z M30.4,202.2 C38.9,202.1 47.1,206.3 51.6,214.2 C58.1,225.6 54.3,240 42.9,246.5 C31.5,253.1 17,249.3 10.4,237.9 C3.9,226.5 7.7,212 19.1,205.5 C22.7,203.3 26.5,202.3 30.4,202.2 L30.4,202.2 L30.4,202.2 Z M256.8,202.2 C260.6,202.3 264.6,203.4 268.1,205.4 C279.5,211.9 283.4,226.4 276.8,237.8 C270.2,249.2 255.8,253.1 244.4,246.5 C232.9,240 229.2,225.5 235.7,214.1 C240.2,206.2 248.4,201.9 256.8,202.2 L256.8,202.2 L256.8,202.2 Z" id="Shape" sketch:type="MSShapeGroup"></path>
            </g>
        </g>
    </g>
</svg>