<svg xmlns="http://www.w3.org/2000/svg" viewBox="0 0 100 100" x="0px" y="0px"><path d="m50.046153 5c-16.300709 0-29.915566 15.385278-29.907691 32.608697.005 11.045536 5.615645 21.337012 13.938462 27.298136-13.438993 4.515308-22.851692 14.549577-29.076924 25.621119l7.800001 4.472048c7.510285-13.357008 18.265103-23.571428 37.246152-23.571428 18.981051 0 29.702498 10.215097 37.200002 23.571428l7.75385-4.472048c-6.21523-11.072042-15.603658-21.105969-29.030775-25.621119 8.320835-5.945194 13.930776-16.19687 13.938462-27.251553.01195-17.227948-13.561683-32.65528-29.861539-32.65528zm0 9.223603c10.209323 0 20.73148 11.27322 20.723077 23.385094-.0084 12.100313-10.521993 23.385092-20.723077 23.385092-10.201083 0-20.763697-11.286157-20.769229-23.385092-.0054-12.108891 10.560766-23.385094 20.769229-23.385094z"></path></svg>