<?xml version="1.0" encoding="UTF-8" standalone="no"?>
<svg width="264px" height="465px" viewBox="0 0 264 465" version="1.1" xmlns="http://www.w3.org/2000/svg" xmlns:xlink="http://www.w3.org/1999/xlink">
    <!-- Generator: Sketch 40.3 (33839) - http://www.bohemiancoding.com/sketch -->
    <title>energyaudit</title>
    <desc>Created with Sketch.</desc>
    <defs></defs>
    <g id="Page-1" stroke="none" stroke-width="1" fill="none" fill-rule="evenodd">
        <g id="energyaudit" fill="#FFFFFF">
            <path d="M260.23,223.72 L131.4,223.72 L160.88,147.88 L171.8,119.8 L171.85,119.8 L182.23,123.8 L195.33,128.87 C197.75,129.81 199.76,127.09 199.27,124.93 L171.19,3.13 C170.915876,2.176636 170.218877,1.40210725 169.299596,1.02932042 C168.380316,0.656533596 167.340719,0.726837899 166.48,1.22 L63.43,72.27 C62.3573377,72.9438931 61.7758002,74.1811217 61.9413914,75.437034 C62.1069826,76.6929464 62.9893271,77.7371631 64.2,78.11 L81.2,84.69 L87.2,87 L81.1,102.68 L50.86,180.48 L0.28,310.42 C-0.49,312.42 1.44,314.48 3.37,314.48 L132.26,314.48 C113.38,363.033333 94.4933333,411.593333 75.6,460.16 C75.0146008,461.406489 75.5291343,462.892427 76.76,463.51 C77.296455,463.970866 77.9828331,464.219811 78.69,464.21 L169.35,464.21 C170.780552,464.179419 172.028407,463.230403 172.44,461.86 L263.3,227.78 C264.09,225.8 262.15,223.72 260.23,223.72 L260.23,223.72 Z" id="Shape"></path>
        </g>
    </g>
</svg>