<?xml version="1.0" encoding="utf-8"?>
<!-- Generator: Adobe Illustrator 16.0.0, SVG Export Plug-In . SVG Version: 6.00 Build 0)  -->
<!DOCTYPE svg PUBLIC "-//W3C//DTD SVG 1.1//EN" "http://www.w3.org/Graphics/SVG/1.1/DTD/svg11.dtd">
<svg version="1.1" id="Layer_1" xmlns="http://www.w3.org/2000/svg" xmlns:xlink="http://www.w3.org/1999/xlink" x="0px" y="0px"
	 width="720px" height="720px" viewBox="0 0 720 720" enable-background="new 0 0 720 720" xml:space="preserve">
<path fill="#FFFFFF" d="M241.667,497.583L132.993,618.414c-0.33,0.378-0.684,1.038-0.778,1.509l-5.104,21.495
	c-0.115,0.444,0.119,0.61,0.519,0.324l24.952-16.907c0.401-0.277,0.989-0.797,1.271-1.174l87.815-108.326"/>
<path fill-rule="evenodd" clip-rule="evenodd" fill="#FFFFFF" d="M186.993,47.146c-14.701,47.324-27.046,94.814-44.191,140.473
	c-35.772,95.332-19.497,181.841,38.947,262.345c15.003,20.717,32.125,39.861,51.809,64.089
	c20.957-52.941,42.286-99.39,57.855-147.674C333.486,235.794,306.749,139.031,186.993,47.146z M214.473,191.806l16.606,263.344
	C191.155,320.251,214.473,191.806,214.473,191.806z"/>
<path fill-rule="evenodd" clip-rule="evenodd" fill="#FFFFFF" d="M535.906,150.777c-317.425,17.686-302.748,363.839-302.561,363.275
	l39.702-17.027C624.898,318.534,535.906,150.777,535.906,150.777z M265.698,455.16c54.053-141.672,169.294-213.738,169.294-213.738
	L265.698,455.16z"/>
<path fill="none" stroke="#FFFFFF" stroke-width="0.36" stroke-linecap="round" stroke-miterlimit="10" d="M434.992,251.424"/>
<path fill="none" stroke="#FFFFFF" stroke-width="0.36" stroke-linecap="round" stroke-miterlimit="10" d="M434.992,251.424"/>
<path fill-rule="evenodd" clip-rule="evenodd" fill="#FFFFFF" d="M233.205,513.414c49.389,12.513,101.625,26.155,154.163,38.761
	c14.157,3.409,29.209,5.735,43.672,4.962c106.679-5.551,186.806-66.275,269.473-129.353
	C543.104,346.772,350.914,398.06,233.205,513.414z M280.476,481.301L530.357,445.2C472.607,493.638,280.476,481.301,280.476,481.301
	z"/>
</svg>
