<?xml version="1.0" encoding="UTF-8" standalone="no"?>
<svg width="197px" height="49px" viewBox="0 0 197 49" version="1.1" xmlns="http://www.w3.org/2000/svg" xmlns:xlink="http://www.w3.org/1999/xlink" xmlns:sketch="http://www.bohemiancoding.com/sketch/ns">
    <!-- Generator: Sketch 3.3.3 (12081) - http://www.bohemiancoding.com/sketch -->
    <title>gbmp</title>
    <desc>Created with Sketch.</desc>
    <defs></defs>
    <g id="Page-1" stroke="none" stroke-width="1" fill="none" fill-rule="evenodd" sketch:type="MSPage">
        <g id="gbmp" sketch:type="MSLayerGroup" fill="#FFFFFF">
            <g id="Page-1" sketch:type="MSShapeGroup">
                <g id="Artboard">
                    <g id="GBMP">
                        <path d="M44.2933724,40.90699 L44.2933724,21.4332484 L24.554682,21.4332484 L24.554682,28.5206306 L36.4111437,28.5206306 L36.4111437,37.1977059 C33.5629434,39.3172968 29.5887104,40.7082784 25.2170541,40.7082784 C15.7451322,40.7082784 9.45259666,33.6871334 9.45259666,24.0827371 C9.45259666,15.0744757 15.9438439,7.65590745 24.4884448,7.65590745 C30.383557,7.65590745 33.8941295,9.57678672 37.4709391,12.6236987 L42.637442,6.46363756 C37.8683624,2.42316737 32.9005712,0.171102014 24.8196308,0.171102014 C10.8435782,0.171102014 0.90799576,11.1664799 0.90799576,24.2152115 C0.90799576,37.7938409 10.4461549,48.1268466 24.9521053,48.1268466 C33.1655201,48.1268466 39.7230045,44.8149858 44.2933724,40.90699 L44.2933724,40.90699 Z M75.6898129,0.965948609 L54.891327,0.965948609 L54.891327,47.332 L76.3521851,47.332 C86.6851908,47.332 93.5076241,42.8941065 93.5076241,34.5482173 C93.5076241,28.1894445 89.7321028,25.0762953 84.300651,23.2216533 C87.7449863,21.4332484 90.9243727,18.5188109 90.9243727,12.8224103 C90.9243727,5.53631653 85.0292604,0.965948609 75.6898129,0.965948609 L75.6898129,0.965948609 Z M74.0338825,20.5059274 L62.9060302,20.5059274 L62.9060302,8.18580518 L74.6300175,8.18580518 C79.8627576,8.18580518 82.7771951,10.3716333 82.7771951,14.1471546 C82.7771951,18.4525737 79.2666226,20.5059274 74.0338825,20.5059274 L74.0338825,20.5059274 Z M76.4184223,40.1121434 L62.9060302,40.1121434 L62.9060302,27.3945979 L75.8222874,27.3945979 C82.2472973,27.3945979 85.3604465,29.7129005 85.3604465,33.6871334 C85.3604465,37.9263153 81.9823485,40.1121434 76.4184223,40.1121434 L76.4184223,40.1121434 Z M140.138624,14.0809174 L140.138624,47.332 L148.285802,47.332 L148.285802,0.965948609 L139.608727,0.965948609 L125.5002,22.8904672 L111.391673,0.965948609 L102.714597,0.965948609 L102.714597,47.332 L110.7293,47.332 L110.7293,14.2133919 L125.235251,35.9391988 L125.5002,35.9391988 L140.138624,14.0809174 Z M196.109072,16.5316944 C196.109072,7.05977251 189.286639,0.965948609 178.489973,0.965948609 L160.208501,0.965948609 L160.208501,47.332 L168.355678,47.332 L168.355678,32.4286263 L177.562652,32.4286263 C187.763183,32.4286263 196.109072,26.9971746 196.109072,16.5316944 L196.109072,16.5316944 Z M187.82942,16.7304061 C187.82942,21.6981973 183.987662,25.0762953 177.8276,25.0762953 L168.355678,25.0762953 L168.355678,8.38451683 L177.8276,8.38451683 C183.921424,8.38451683 187.82942,11.2327171 187.82942,16.7304061 L187.82942,16.7304061 Z"></path>
                    </g>
                </g>
            </g>
        </g>
    </g>
</svg>