<?xml version="1.0" encoding="UTF-8" standalone="no"?>
<svg width="294px" height="311px" viewBox="0 0 294 311" version="1.1" xmlns="http://www.w3.org/2000/svg" xmlns:xlink="http://www.w3.org/1999/xlink">
    <!-- Generator: Sketch 3.6.1 (26313) - http://www.bohemiancoding.com/sketch -->
    <title>Group</title>
    <desc>Created with Sketch.</desc>
    <defs></defs>
    <g id="Page-1" stroke="none" stroke-width="1" fill="none" fill-rule="evenodd">
        <g id="Artboard-1" transform="translate(-189.000000, -115.000000)">
            <g id="Group" transform="translate(189.000000, 115.000000)">
                <path d="M33.392,268.197 C39.076,277.676 48.058,284.261 55.762,290.179 C63.443,296.115 71.397,300.512 78.944,303.015 C79.876,303.369 80.791,303.709 81.692,304.052 C82.608,304.334 83.533,304.549 84.43,304.802 C86.224,305.281 87.957,305.748 89.62,306.195 C93.003,306.843 96.157,307.239 98.977,307.693 C101.845,307.83 104.397,307.957 106.618,308.06 C108.848,308.186 110.733,307.881 112.269,307.845 C115.331,307.656 116.966,307.557 116.966,307.557 L117.123,307.549 C117.131,307.549 117.139,307.547 117.146,307.549 C117.963,307.515 118.651,308.153 118.675,308.978 C118.701,309.799 118.057,310.494 117.234,310.529 C117.234,310.529 115.546,310.603 112.38,310.74 C110.794,310.74 108.839,311.007 106.548,310.845 C104.259,310.726 101.624,310.594 98.675,310.438 C95.759,309.98 92.506,309.582 89.018,308.927 C87.287,308.503 85.492,308.062 83.624,307.609 C82.694,307.368 81.734,307.165 80.784,306.889 C79.841,306.56 78.886,306.221 77.921,305.887 C70.083,303.399 61.663,299.225 53.377,293.373 C45.139,287.468 36.996,279.778 30.329,270.06" id="Shape" fill="#FFFFFF"></path>
                <path d="M248.016,84.411 C254.654,95.909 260.169,105.13 260.345,105.028" id="Shape"></path>
                <path d="M269.027,99.533 C267.001,96.023 267.071,92.196 269.186,90.974" id="Shape"></path>
                <path d="M269.026,99.533 C271.142,98.311 271.214,94.483 269.188,90.973" id="Shape" fill="#63BD5E"></path>
                <path d="M269.093,99.495 L269.255,90.935" id="Shape"></path>
                <path d="M269.255,90.935 L269.416,82.375" id="Shape"></path>
                <path d="M270.694,95.226 L270.689,95.226" id="Shape"></path>
                <path d="M270.694,95.226 L270.689,95.226" id="Shape"></path>
                <path d="M270.718,95.579 L270.718,95.578" id="Shape"></path>
                <path d="M162.401,92.735 C161.196,96.128 159.798,98.979 159.503,102.665 C158.004,97.683 153.409,92.67 148.642,90.603 C146.042,89.596 142.405,89.558 139.636,89.192 C137.781,88.946 135.658,89.537 134.361,90.79 C133.047,89.775 130.277,101.054 129.951,102.19 C129.111,105.12 127.009,107.876 125.35,110.383 C123.413,113.197 120.73,114.157 117.877,115.741 C115.919,116.821 116.298,117.307 114.151,117.804 C111.79,118.251 109.201,119.577 107.233,120.979 C106.182,121.719 105.449,122.305 104.619,121.653 C103.225,120.556 98.784,123.941 98.288,120.046 C98.095,119.916 95.943,122.426 95.581,122.195 C91.245,125.655 100.315,127.662 104.63,127.425 C107.138,127.18 106.968,125.979 109.167,124.734 C110.546,123.954 113.433,121.776 115.007,122.229 C117.279,122.879 119.298,122.206 122.106,122.599 C124.23,120.962 126.458,120.587 127.689,118.205 C130.238,116.321 130.284,114.989 131.751,112.299 C133.236,109.584 137.123,104.296 139.832,102.462 C142.605,105.202 144.22,109.844 146.342,113.104 C148.869,116.992 152.41,120.421 156.016,123.312 C157.037,123.972 161.186,124.581 162.481,124.864 C165.096,125.438 167.451,122.565 168.864,120.717 C172.683,115.727 175.661,110.054 179.303,104.983 C180.865,106.369 181.987,108.89 183.191,110.567 C185.4,113.644 187.79,116.654 190.376,119.427 C194.316,123.646 198.708,129.088 203.917,131.773 C206.778,133.255 209.827,136.171 211.964,138.272 C213.744,140.015 215.237,143.171 217.13,145.307 C218.967,147.408 219.868,150.357 221.749,152.328 C219.056,152.18 214.977,154.341 212.322,155.149 C210.112,155.316 206.823,157.605 204.996,158.766 C201.286,161.119 200.315,163.176 198.202,166.931 C196.77,169.782 196.297,172.747 196.295,175.916 C196.286,178.953 197.972,180.34 199.286,182.677 C200.561,184.948 195.844,188.207 193.727,187.297 C195.755,189.616 200.047,188.022 201.876,186.041 C202.98,184.621 202.961,182.784 201.609,181.621 C201.573,181.257 201.408,180.22 202.005,180.407 C203.21,181.437 204.034,183.155 205.173,184.426 C205.745,185.057 206.394,185.779 206.862,186.502 C207.625,187.684 206.903,189.041 208.633,189.374 C208.738,190.309 206.421,191.061 205.734,191.154 C208.127,191.56 211.837,190.725 211.672,187.498 C211.526,184.555 206.903,182.122 205.583,179.394 C206.442,179.886 211.055,181.18 209.581,182.693 C210.977,183.275 212.021,183.004 213.417,182.743 C216.97,182.086 210.304,178.368 209.846,178.087 C206.921,176.772 204.229,176.525 205.372,172.493 C207.371,172.67 207.862,172.415 206.226,174.228 C206.976,174.104 208.72,173.832 209.177,173.182 C209.745,172.371 210.604,170.646 209.319,170.171 C210.508,169.41 211.648,168.781 212.8,167.973 C214.67,166.674 216.917,167.149 219.007,166.423 C222.558,165.196 227.005,164.577 230.497,166.577 C232.082,167.325 233.495,169.449 234.321,170.943 C234.872,171.935 233.818,175.575 233.844,176.941 C233.915,181.295 235.41,186.037 236.352,190.324 C237.123,193.826 237.188,197.175 237.495,200.706 C237.829,204.533 238.974,208.369 239.368,212.269 C239.795,216.472 241.174,221.171 242.763,225.101 C243.701,227.414 245.114,230.075 247.176,231.566 C248.471,232.783 250.158,235.009 252.167,234.623 C253.892,234.549 255.511,234.978 256.668,233.279 C258.289,231.717 259.751,230.552 261.23,228.765 C262.895,226.751 264.91,224.894 266.812,223.112 C269.059,221.009 271.724,219.636 273.265,216.884 C274.37,214.909 274.568,212.335 274.369,210.113 C274.293,209.262 273.584,206.534 272.585,205.849 C273.517,204.922 273.944,200.713 274.132,199.089 C274.585,195.057 274.535,189.729 273.056,185.927 C272.253,183.871 273.229,177.02 273.159,175.569 C272.971,171.505 272.535,168.478 271.684,164.594 C273.143,165.034 274.289,166.448 275.85,165.466 C277.532,164.412 277.954,161.988 280.231,162.64 C279.956,163.545 280.469,163.799 280.493,164.847 C280.52,166.441 279.828,168.203 280.244,169.756 C280.098,169.705 279.96,169.656 279.815,169.606 C279.919,169.708 280.021,169.798 280.127,169.897 C279.002,170.168 278.652,170.961 277.414,170.608 C276.85,170.223 276.202,170.097 275.545,170.28 C277.203,171.844 279.637,172.96 281.812,171.696 C283.756,170.564 282.676,167.005 282.615,165.196 C284.578,164.465 286.003,169.294 286.003,170.212 C285.101,170.183 283.877,170.513 282.916,170.206 C284.03,171.939 289.464,173.581 289.484,170.194 C289.505,166.946 287.339,164.116 286.772,160.955 C287.629,161.716 292.914,166.493 293.489,163.715 C293.95,162.106 293.618,158.868 291.441,158.29 C291.853,159.462 291.767,160.339 291.823,160.855 C289.76,160.089 288.952,158.907 288.409,156.917 C296.909,157.981 290.652,148.905 287.513,151.578 C288.43,151.594 289.055,151.95 289.28,152.883 C289.164,152.817 289.138,152.84 289.203,152.94 C287.574,152.529 286.279,152.731 285.408,151.157 C285.096,150.554 285.377,149.628 285.178,149.075 C282.095,145.441 282.304,139.125 277.017,137.278 C274.648,136.457 272.619,136.605 270.179,136.73 C268.792,136.799 266.986,137.762 265.722,137.474 C265.094,137.33 264.128,134.144 263.784,133.391 C262.379,130.853 261.435,128.057 260.412,125.327 C257.519,117.588 253.914,110.554 249.177,104.024 C247.336,101.489 245.5,98.682 243.518,96.203 C241.971,94.27 240.184,91.374 238.456,89.685 C230.518,81.925 224.607,76.28 216.84,72.672 C212.622,70.712 208.788,69.939 204.214,69.589 C201.869,69.308 199.588,69.301 197.41,68.274 C197.152,67.009 199.042,64.29 199.478,63.192 C200.911,59.568 201.479,55.702 202.233,51.879 C203.043,47.74 205.768,42.154 200.394,40.188 C197.906,39.279 195.459,37.919 192.789,38.278 C190.952,38.724 189.178,39.259 187.405,39.893 C185.259,40.655 183.349,40.777 181.208,41.451 C180.298,41.734 178.56,42.733 177.726,43.176 C178.482,40.893 180.457,38.176 182.416,36.788 C184.481,35.332 187.393,34.887 189.229,33.12 C189.792,32.405 190.084,31.832 190.108,31.438 C190.122,31.127 190.147,30.288 189.811,30.218 C189.713,30.201 189.486,29.264 188.531,28.658 C188.934,29.571 189.069,30.486 188.838,30.619 C188.509,30.807 188.142,31.018 187.758,31.143 C185.249,32.251 182.704,33.152 180.409,34.675 C182.481,29.559 186.171,25.442 188.415,20.421 C190.785,15.129 191.647,8.007 191.565,2.313 C191.659,1.93 191.735,0.665 191.05,0.725 C189.975,0.826 190.729,2.441 190.568,3.008 C189.915,6.578 189.075,10.205 187.838,13.608 C186.904,16.177 185.828,19.424 184.066,21.539 C182.884,23.485 173.368,41.638 171.633,43.18 L162.401,92.735 Z M272.079,162.966 C272.056,162.729 272.034,162.494 272.012,162.256 C272.005,162.185 272.006,162.194 272.013,162.251 C271.867,160.658 271.692,159.029 271.24,157.51 C270.595,155.338 270.161,153.107 270.031,150.802 C271.152,150.536 273.189,150.371 273.491,151.272 C274.371,153.938 275.545,156.313 278.086,157.755 C277.602,159.787 276.466,160.434 275.4,162.078 C275.13,162.336 272.098,163.205 272.079,162.966 L272.079,162.966 Z M272.72,204.002 C272.656,203.937 272.684,203.666 272.72,204.002 L272.72,204.002 L272.72,204.002 Z" id="Shape" fill="#FFFFFF"></path>
                <path d="M164.354,89.5 C163.45,89.045 162.723,88.039 161.821,87.52 C148.949,80.516 127.114,82.076 110.934,81.75 C94.773,81.603 77.937,89.253 63.791,97.071 C49.559,104.974 37.307,115.802 27.928,128.904 C18.766,141.512 12.34,155.914 9.291,170.286 C6.139,184.64 5.902,198.858 7.912,211.639 C9.88,224.41 13.505,235.953 18.458,245.296 C19.029,246.489 19.596,247.661 20.148,248.818 C20.77,249.933 21.46,250.991 22.088,252.055 C23.37,254.166 24.607,256.206 25.793,258.163 C28.444,261.895 31.102,265.171 33.39,268.197 C35.757,271.74 37.66,274.318 39.691,276.459 C41.711,278.625 43.321,280.301 44.822,281.674 C47.926,284.307 49.576,285.391 49.576,285.391 L49.875,286.361 C49.883,286.369 49.867,286.355 49.875,286.361 C50.687,287.082 51.801,286.71 51.078,287.524 C50.355,288.343 49.11,288.421 48.291,287.7 C48.291,287.7 46.61,286.221 43.456,283.444 C41.938,281.993 39.826,280.452 37.779,278.193 C35.697,275.973 33.294,273.426 30.614,270.572 C28.238,267.452 25.488,264.083 22.743,260.247 C21.471,258.247 20.153,256.174 18.776,254.023 C18.103,252.937 17.37,251.86 16.709,250.72 C16.107,249.536 15.5,248.336 14.879,247.128 C9.635,237.531 5.361,225.775 2.734,212.527 C0.202,199.272 -0.618,184.38 1.808,168.89 C4.267,153.454 9.607,137.43 18.771,122.469 C27.613,107.973 40.05,94.076 55.255,83.52 C70.496,72.813 88.417,65.746 107.281,61.108 C126.173,56.658 146.731,55.246 166.849,59.104 C171.918,59.907 176.795,61.403 181.634,63.04" id="Shape" fill="#FFFFFF"></path>
                <path d="M189.08,56.405 L184.397,51.37 L176.708,50.957 L169.361,49.148 L167.339,59.06 L185.053,63.831 L189.08,56.405 Z" id="Shape" fill="#63BD5E"></path>
                <path d="M171.757,47.765 C170.269,45.186 173.45,40.387 172.402,41.913 C172.389,41.932 166.516,47.437 167.369,48.914 C168.859,51.492 173.292,50.596 176.251,50.931 C178.026,51.133 173.245,50.344 171.757,47.765 L171.757,47.765 Z" id="Shape" fill="#63BD5E"></path>
                <path d="M185.64,57.851 C185.589,54.873 182.389,51.555 184.398,51.371 C184.419,51.369 191.827,51.162 191.857,52.868 C191.909,55.844 187.687,61.822 185.324,63.633 C183.905,64.72 185.691,60.828 185.64,57.851 L185.64,57.851 Z" id="Shape" fill="#63BD5E"></path>
                <path d="M107.774,72.436 C105.803,73.567 104.969,74.236 102.773,73.302 C100.309,72.255 98.764,70.484 100.653,68.53 C103.968,65.098 110.287,67.797 107.649,72.22" id="Shape" fill="#60BA5B"></path>
                <path d="M130.185,69.463 C126.611,72.314 120.232,65.189 126.351,63.347 C128.362,62.743 130.871,62.899 132.018,64.637 C133.419,66.763 132.079,67.577 130.708,68.871" id="Shape" fill="#60BA5B"></path>
                <path d="M161.206,70.567 C157.424,73.907 146.192,63.845 154.219,63.352 C156.532,63.21 163.97,66.583 161.048,69.792" id="Shape" fill="#60BA5B"></path>
                <path d="M186.173,80.078 C182.801,80.894 175.485,71.328 181.771,70.455 C183.977,70.146 187.548,72.264 188.959,73.871 C190.605,75.745 189.611,76.907 189.739,78.842 C189.337,79.121 188.764,79.598 188.278,79.729" id="Shape" fill="#60BA5B"></path>
                <path d="M84.175,77.895 C83.968,77.91 83.557,78.301 83.331,78.278 C82.814,78.223 82.241,76.921 82.029,76.512 C81.675,75.827 81.553,75.886 82.044,75.37 C82.395,75.001 82.978,74.826 83.433,74.968 C83.941,75.127 84.759,76.068 84.914,76.676 C85.082,77.328 84.915,77.543 84.248,77.852" id="Shape" fill="#60BA5B"></path>
                <path d="M209.181,90.052 C208.19,90.255 207.452,91.323 206.306,91.04 C205.235,90.775 204.191,89.431 203.681,88.522 C202.094,85.698 205.351,81.153 208.584,81.932 C211.125,82.545 213.044,84.568 211.786,87.203 C211.141,88.554 210.412,89.245 209.139,89.979" id="Shape" fill="#60BA5B"></path>
                <path d="M225.994,104.81 C224.496,106.754 222.296,103.272 221.913,101.873 C221.349,99.812 223.391,97.824 224.811,96.712 C226.48,95.405 228.739,95.106 230.258,96.868 C232.385,99.335 228.974,104.528 226.035,104.882" id="Shape" fill="#60BA5B"></path>
                <path d="M63.953,85.423 C63.856,85.269 63.381,85.111 63.307,84.924 C63.135,84.5 63.911,83.514 64.142,83.18 C64.529,82.619 64.432,82.55 65.038,82.719 C65.471,82.84 65.848,83.222 65.926,83.634 C66.014,84.095 65.619,85.122 65.21,85.496 C64.77,85.896 64.534,85.855 64.016,85.463" id="Shape" fill="#60BA5B"></path>
                <path d="M242.603,120.088 C241.613,120.29 240.874,121.359 239.729,121.075 C238.657,120.81 237.614,119.466 237.104,118.557 C235.516,115.733 238.773,111.187 242.007,111.967 C244.548,112.58 246.467,114.604 245.208,117.238 C244.563,118.589 243.835,119.279 242.562,120.014" id="Shape" fill="#60BA5B"></path>
                <path d="M257.945,157.156 C255.308,157.794 249.587,150.313 254.503,149.628 C256.228,149.388 259.021,151.042 260.125,152.298 C261.411,153.763 260.636,154.673 260.734,156.188 C260.421,156.405 259.973,156.778 259.593,156.879" id="Shape" fill="#60BA5B"></path>
                <path d="M253.486,136.454 C249.911,139.307 243.533,132.18 249.653,130.34 C251.663,129.735 254.171,129.891 255.319,131.631 C256.721,133.756 255.379,134.571 254.009,135.864" id="Shape" fill="#60BA5B"></path>
                <path d="M50.101,96.84 C49.893,96.855 49.482,97.246 49.256,97.222 C48.739,97.168 48.165,95.866 47.954,95.457 C47.6,94.772 47.477,94.831 47.968,94.315 C48.32,93.947 48.904,93.772 49.359,93.914 C49.865,94.072 50.685,95.015 50.84,95.622 C51.007,96.275 50.84,96.489 50.173,96.8" id="Shape" fill="#60BA5B"></path>
            </g>
        </g>
    </g>
</svg>