<?xml version="1.0" encoding="utf-8"?>
<!-- Generator: Adobe Illustrator 16.0.0, SVG Export Plug-In . SVG Version: 6.00 Build 0)  -->
<!DOCTYPE svg PUBLIC "-//W3C//DTD SVG 1.1//EN" "http://www.w3.org/Graphics/SVG/1.1/DTD/svg11.dtd">
<svg version="1.1" id="Layer_1" xmlns="http://www.w3.org/2000/svg" xmlns:xlink="http://www.w3.org/1999/xlink" x="0px" y="0px"
	 width="360px" height="360px" viewBox="0 0 360 360" enable-background="new 0 0 360 360" xml:space="preserve">
<polygon fill="#FFFFFF" points="302.13,175.185 302.13,175.185 235.184,206.664 230.398,208.935 230.115,277.227 71.262,229.022 
	70.958,151.618 97.613,125.355 120.017,159.212 115.396,164.28 119.777,168.497 146.906,138.132 174.765,174.838 170.432,179.09 
	175.278,183.938 206.43,153.038 237.096,198.11 308.641,165.22 263.75,108.67 238.924,120.739 215.557,96.605 192.553,108.317 
	169.546,85.251 96.964,116.018 56.383,157.286 63.797,163.725 63.958,236.83 228.982,287.576 230.076,287.223 302.729,251.377 
	302.053,175.222 "/>
<line fill="none" stroke="#FFFFFF" stroke-width="7" stroke-miterlimit="10" x1="117.358" y1="166.654" x2="159.417" y2="124.428"/>
<line fill="none" stroke="#FFFFFF" stroke-width="7" stroke-miterlimit="10" x1="171.796" y1="182.534" x2="213.589" y2="140.577"/>
</svg>
