<?xml version="1.0" encoding="UTF-8" standalone="no"?>
<svg width="300px" height="234px" viewBox="0 0 300 234" version="1.1" xmlns="http://www.w3.org/2000/svg" xmlns:xlink="http://www.w3.org/1999/xlink">
    <!-- Generator: Sketch 40.3 (33839) - http://www.bohemiancoding.com/sketch -->
    <title>PIE logo-2</title>
    <desc>Created with Sketch.</desc>
    <defs></defs>
    <g id="Page-1" stroke="none" stroke-width="1" fill="none" fill-rule="evenodd">
        <g id="PIE-logo-2" fill="#FFFFFF">
            <path d="M81.7,227.8 C81.7,228 82.8,232 86.6,233.1 C89.1,233.8 91.2,232.8 91.7,232.6 C109.9,219.2 128,205.8 146.2,192.4 L193.8,226.2 C193.9,226.3 196.6,228.3 199.7,227 C202.6,225.8 203.2,223 203.3,222.7 C207.9,196.4 212.5,170.2 217.1,143.9 L296.7,92 C296.9,91.8 299.3,90.1 299.2,87.1 C299.1,84.7 297.5,82.4 294.9,81.6 C199.3,54.6 103.6,27.7 8,0.7 C5.4,-0.3 2.5,0.5 1,2.6 C-0.2,4.3 -0.3,6.5 0.6,8.5 C13.4,12.8 26.3,17.2 39.1,21.5 L280.6,88.6 L212,133.9 L17.7,7.1 L19,26.6 L61.4,49.1 L205,143.5 L196.3,199.8 L182,160.4 L38.4,27.1 L9.8,6.3 L16.7,24.5 L167.3,161.7 L173.8,171.2 L186.3,207.5 L156,184.6 L180.7,166.4 L171.2,156.4 L170.8,159.9 L90.7,219.6 L10.3,2.2 L1.7,11.7 L81.7,227.8 L81.7,227.8 Z" id="Shape"></path>
            <rect id="Rectangle-path" transform="translate(4.557585, 9.745235) rotate(-19.407936) translate(-4.557585, -9.745235) " x="1.40750699" y="6.39515204" width="6.30015602" height="6.70016592"></rect>
            <polygon id="Shape" points="10.5 17.1 92.6 84.4 173.8 164 88.4 227.5"></polygon>
            <polygon id="Shape" points="32.9 17.1 288.3 87 213.4 140.4"></polygon>
        </g>
    </g>
</svg>