<svg id="Layer_1" data-name="Layer 1" xmlns="http://www.w3.org/2000/svg" xmlns:xlink="http://www.w3.org/1999/xlink" viewBox="0 0 300 300"><defs><style>.cls-1,.cls-4{fill:none;}.cls-2{clip-path:url(#clip-path);}.cls-3{fill:#fff;}.cls-4{stroke:#fff;stroke-miterlimit:10;stroke-width:3px;}</style><clipPath id="clip-path"><rect class="cls-1" x="-1" y="0.7" width="302.13" height="298.3"/></clipPath></defs><title>rootsArtboard 1</title><g class="cls-2"><path class="cls-3" d="M144.06,86.74c6.44-11.9,16.25-20.23,26.13-28.51-7.55,3.92-14,9.22-20,15C143.92,79.32,138.43,86,134.8,94c-5.41,11.92-1.7,21.67,10.76,26.17A76.15,76.15,0,0,0,164,124.12c8.15.8,16.18,1.51,23.46,5.67,1.54-5.89-5.62-19.14-13.2-24,4,6.37,8.39,11.94,9.41,19-5-1.38-9.71-2.64-14.42-4.07a3.58,3.58,0,0,1-2-1.93c-2.58-6.93-2.3-13.93-.5-20.94,16.17.72,32,16.44,32.73,32,1,21-8.83,36.62-24.7,49.26a78,78,0,0,1-31.24,15.15,7.5,7.5,0,0,0-1.43.54c-.15.07-.25.28-.75.88,22.78-2.27,41.11-11.6,55.11-29.73,4.09,11.44,3.48,21.74-4,31.13-5.71,7.17-13.38,11.67-21.89,14.81-12.65,4.69-25.65,6.49-39,3.24-10.43-2.55-14.64-8.4-13.76-18.51A36,36,0,0,1,128.15,174c10.58-10.8,23.87-16.19,38.68-18.11,4.47-.58,9.1.08,13.66,0a3,3,0,0,0,2.3-1.09c4.06-8.16,3.23-16.3-6.22-20.42-10.21-4.45-20.73-6.39-31.63-1.89-8.93,3.69-18.16,5.22-27.73,2.59-8.91-2.46-15.69-7.77-21.13-15.39a89.12,89.12,0,0,1,21-6.77c4-.8,6.29,0,8.44,3.79,2,3.53,5.58,6.19,8.36,9.12-3.81,2.09-12.64,1.74-26.29-1.37,4.74,5.2,24.29,6.83,33.94,3.11-.89-.58-1.6-1.09-2.35-1.53-12.46-7.28-16.47-19.79-10.59-32.94,2.26-5,4.55-10.08,6.57-15.22,6.08-15.42,18.25-22.73,34.11-25.18,2.9-.44,5.88-.49,8.82-.68a9.59,9.59,0,0,1,1.69.17,6.85,6.85,0,0,1,0,2.12c-2.39,6.37-4.1,13.12-7.44,19-5.92,10.41-15.91,14-28.22,13.47"/><path class="cls-3" d="M238.92,200.47h-1.64l-131.1.2a3,3,0,0,0-2.19.59Q82.5,219.85,61,238.39c-.17.15-.3.3-.53.52H62l131.22-.2a2.88,2.88,0,0,0,2.1-.57q21.08-18.22,42.22-36.41l1.44-1.26m4.08-1a6.65,6.65,0,0,0-.56.36l-46.07,39.7-.23.24L56.28,240,74.2,224.57l28.39-24.49a2.58,2.58,0,0,1,1.84-.48l138.34-.21H243v.1"/><path class="cls-4" d="M238.92,200.47h-1.64l-131.1.2a3,3,0,0,0-2.19.59Q82.5,219.85,61,238.39c-.17.15-.3.3-.53.52H62l131.22-.2a2.88,2.88,0,0,0,2.1-.57q21.08-18.22,42.22-36.41Zm4.08-1a6.65,6.65,0,0,0-.56.36l-46.07,39.7-.23.24L56.28,240,74.2,224.57l28.39-24.49a2.58,2.58,0,0,1,1.84-.48l138.34-.21H243Z"/><path class="cls-3" d="M238.92,197.12h-1.64l-131.1.2a3,3,0,0,0-2.19.59Q82.5,216.48,61,235c-.17.15-.3.3-.53.52H62q65.61-.12,131.22-.2a2.88,2.88,0,0,0,2.1-.58q21.08-18.21,42.22-36.41c.45-.38.89-.77,1.44-1.26m4.08-1c-.19.13-.41.24-.56.37l-46.07,39.7c-.08.08-.15.16-.23.23l-139.86.23L74.2,221.23l28.39-24.49a2.54,2.54,0,0,1,1.84-.49L242.77,196H243v.1"/><path class="cls-4" d="M238.92,197.12h-1.64l-131.1.2a3,3,0,0,0-2.19.59Q82.5,216.48,61,235c-.17.15-.3.3-.53.52H62q65.61-.12,131.22-.2a2.88,2.88,0,0,0,2.1-.58q21.08-18.21,42.22-36.41C237.93,198,238.37,197.61,238.92,197.12Zm4.08-1c-.19.13-.41.24-.56.37l-46.07,39.7c-.08.08-.15.16-.23.23l-139.86.23L74.2,221.23l28.39-24.49a2.54,2.54,0,0,1,1.84-.49L242.77,196H243Z"/></g></svg>