<?xml version="1.0" encoding="UTF-8" standalone="no"?>
<svg width="89px" height="89px" viewBox="0 0 89 89" version="1.1" xmlns="http://www.w3.org/2000/svg" xmlns:xlink="http://www.w3.org/1999/xlink">
    <!-- Generator: Sketch 41.2 (35397) - http://www.bohemiancoding.com/sketch -->
    <title>Group</title>
    <desc>Created with Sketch.</desc>
    <defs></defs>
    <g id="Page-1" stroke="none" stroke-width="1" fill="none" fill-rule="evenodd">
        <g id="Group" transform="translate(0.000000, 0.637820)" fill="#FFFFFF">
            <path d="M44.78125,0.33093 C43.7508578,0.444160117 42.9777057,1.32582479 43,2.36218 L43,14.36218 C42.9897994,15.0834518 43.3687506,15.7543427 43.9917457,16.1179554 C44.6147408,16.4815682 45.3852592,16.4815682 46.0082543,16.1179554 C46.6312494,15.7543427 47.0102006,15.0834518 47,14.36218 L47,2.36218 C47.0124076,1.78618765 46.7758491,1.23281673 46.3509071,0.843785328 C45.9259651,0.454753923 45.3539119,0.267846508 44.78125,0.33093 L44.78125,0.33093 Z M15.09375,12.64343 C14.323427,12.7186682 13.6656492,13.2315766 13.4049052,13.9603227 C13.1441612,14.6890688 13.3272555,15.5028397 13.875,16.04968 L22.375,24.54968 C22.8555611,25.1460293 23.6344573,25.4156123 24.3808442,25.2439209 C25.1272312,25.0722295 25.7100495,24.4894112 25.8817409,23.7430242 C26.0534323,22.9966373 25.7838493,22.2177411 25.1875,21.73718 L16.71875,13.23718 C16.2951199,12.803126 15.6974224,12.5847366 15.09375,12.64343 Z M74.46875,12.64343 C74.0168607,12.7003722 73.5979373,12.9098338 73.28125,13.23718 L64.8125,21.73718 C64.2161507,22.2177411 63.9465677,22.9966373 64.1182591,23.7430242 C64.2899505,24.4894112 64.8727688,25.0722295 65.6191558,25.2439209 C66.3655427,25.4156123 67.1444389,25.1460293 67.625,24.54968 L76.125,16.04968 C76.7338252,15.4471072 76.8913675,14.5237448 76.5167892,13.7533857 C76.1422109,12.9830266 75.3186743,12.5367025 74.46875,12.64343 L74.46875,12.64343 Z M45,20.36218 C31.768853,20.36218 21,31.13102 21,44.36218 C21,57.59328 31.768853,68.36218 45,68.36218 C58.231147,68.36218 69,57.59328 69,44.36218 C69,31.13102 58.231147,20.36218 45,20.36218 Z M45,24.36218 C56.069385,24.36218 65,33.29278 65,44.36218 C65,55.43158 56.069385,64.36218 45,64.36218 C33.930614,64.36218 25,55.43158 25,44.36218 C25,33.29278 33.930614,24.36218 45,24.36218 Z M2.8125,42.36218 C2.09786685,42.3955352 1.4553308,42.8076582 1.12698541,43.44327 C0.798640021,44.0788819 0.834382644,44.8413911 1.22074624,45.443501 C1.60710983,46.0456109 2.28538025,46.395821 3,46.36218 L15,46.36218 C15.7212718,46.3723806 16.3921627,45.9934294 16.7557754,45.3704343 C17.1193882,44.7474392 17.1193882,43.9769208 16.7557754,43.3539257 C16.3921627,42.7309306 15.7212718,42.3519794 15,42.36218 L3,42.36218 C2.93753436,42.359249 2.87496564,42.359249 2.8125,42.36218 Z M74.8125,42.36218 C74.0978668,42.3955352 73.4553308,42.8076582 73.1269854,43.44327 C72.79864,44.0788819 72.8343826,44.8413911 73.2207462,45.443501 C73.6071098,46.0456109 74.2853802,46.395821 75,46.36218 L87,46.36218 C87.7212718,46.3723806 88.3921627,45.9934294 88.7557754,45.3704343 C89.1193882,44.7474392 89.1193882,43.9769208 88.7557754,43.3539257 C88.3921627,42.7309306 87.7212718,42.3519794 87,42.36218 L75,42.36218 C74.9375344,42.359249 74.8749656,42.359249 74.8125,42.36218 Z M23.5625,63.54968 C23.1106107,63.6066222 22.6916873,63.8160838 22.375,64.14343 L13.875,72.64343 C13.3559601,73.1480882 13.1501169,73.8938174 13.3367862,74.5932721 C13.5234555,75.2927268 14.0734993,75.8367261 14.7749739,76.0156555 C15.4764484,76.1945848 16.2198577,75.9805143 16.71875,75.45593 L25.1875,66.98718 C25.8159721,66.3926405 25.9909809,65.4614404 25.6212408,64.679298 C25.2515008,63.8971556 24.4208258,63.4413695 23.5625,63.54968 L23.5625,63.54968 Z M66,63.54968 C65.2214913,63.6254455 64.5585772,64.1480532 64.3031774,64.8873686 C64.0477776,65.6266839 64.2467595,66.4470375 64.8125,66.98718 L73.28125,75.45593 C73.7801423,75.9805143 74.5235516,76.1945848 75.2250261,76.0156555 C75.9265007,75.8367261 76.4765445,75.2927268 76.6632138,74.5932721 C76.8498831,73.8938174 76.6440399,73.1480882 76.125,72.64343 L67.625,64.14343 C67.2013699,63.709376 66.6036724,63.4909866 66,63.54968 L66,63.54968 Z M44.78125,72.33093 C43.7508578,72.4441601 42.9777057,73.3258248 43,74.36218 L43,86.36218 C42.9897994,87.0834518 43.3687506,87.7543427 43.9917457,88.1179554 C44.6147408,88.4815682 45.3852592,88.4815682 46.0082543,88.1179554 C46.6312494,87.7543427 47.0102006,87.0834518 47,86.36218 L47,74.36218 C47.0124076,73.7861877 46.7758491,73.2328167 46.3509071,72.8437853 C45.9259651,72.4547539 45.3539119,72.2678465 44.78125,72.33093 Z" id="Shape"></path>
        </g>
    </g>
</svg>