<?xml version="1.0" encoding="UTF-8" standalone="no"?>
<svg width="101px" height="53px" viewBox="0 0 101 53" version="1.1" xmlns="http://www.w3.org/2000/svg" xmlns:xlink="http://www.w3.org/1999/xlink" xmlns:sketch="http://www.bohemiancoding.com/sketch/ns">
    <!-- Generator: Sketch 3.4.2 (15857) - http://www.bohemiancoding.com/sketch -->
    <title>SD</title>
    <desc>Created with Sketch.</desc>
    <defs></defs>
    <g id="Page-1" stroke="none" stroke-width="1" fill="none" fill-rule="evenodd" sketch:type="MSPage">
        <path d="M10.968,14.776 C10.968,11.392 13.992,8.728 19.176,8.728 C23.784,8.728 28.32,10.528 32.856,13.912 L37.608,7.216 C32.496,3.112 26.664,0.88 19.32,0.88 C9.312,0.88 2.112,6.784 2.112,15.568 C2.112,24.928 8.16,28.096 18.888,30.688 C28.248,32.848 30.264,34.792 30.264,38.464 C30.264,42.352 26.808,44.872 21.336,44.872 C15.072,44.872 10.248,42.496 5.424,38.32 L0.096,44.656 C6.144,50.056 13.416,52.72 21.12,52.72 C31.704,52.72 39.12,47.104 39.12,37.6 C39.12,29.176 33.576,25.36 22.92,22.768 C13.272,20.464 10.968,18.736 10.968,14.776 L10.968,14.776 Z M100.136,26.728 C100.136,12.472 89.192,1.6 73.352,1.6 L54.56,1.6 L54.56,52 L73.352,52 C89.192,52 100.136,40.984 100.136,26.728 L100.136,26.728 Z M90.848,26.872 C90.848,36.808 83.936,43.936 73.352,43.936 L63.416,43.936 L63.416,9.664 L73.352,9.664 C83.936,9.664 90.848,16.936 90.848,26.872 L90.848,26.872 Z" id="SD" fill="#FFFFFF" sketch:type="MSShapeGroup"></path>
    </g>
</svg>