<?xml version="1.0" encoding="UTF-8" standalone="no"?>
<svg width="64px" height="100px" viewBox="0 0 64 100" version="1.1" xmlns="http://www.w3.org/2000/svg" xmlns:xlink="http://www.w3.org/1999/xlink">
    <!-- Generator: Sketch 3.7 (28169) - http://www.bohemiancoding.com/sketch -->
    <title>Group</title>
    <desc>Created with Sketch.</desc>
    <defs></defs>
    <g id="Page-1" stroke="none" stroke-width="1" fill="none" fill-rule="evenodd">
        <g id="Group" fill="#FFFFFF">
            <polygon id="Shape" points="20.1 26.7 31.9 28.5 39.3 17.4 24.7 11.5"></polygon>
            <g transform="translate(11.000000, 35.000000)" id="Shape">
                <path d="M33.6,23.7 L33.2,25.5 L40.6,23 C40.7,22.8 40.8,22.6 40.9,22.4 L33.6,23.7 L33.6,23.7 Z"></path>
                <path d="M1.4,21.7 C1.5,21.9 1.6,22.2 1.7,22.4 L11.4,7.8 L6.4,0.6 L0.6,19.9 C0.9,20.5 1.1,21.1 1.4,21.7"></path>
                <path d="M26.1,41.7 L28.3,32 L27.5,30.8 L8,37.5 C9,40 9.7,41.6 9.7,41.6 L26.1,41.6 L26.1,41.7 Z"></path>
            </g>
            <polygon id="Shape" points="29.9 31.5 19.2 29.9 18.6 31.7 24.3 39.9"></polygon>
            <g transform="translate(14.000000, 34.000000)" id="Shape">
                <path d="M31.1,22.2 L38.9,20.7 C41.8,14.7 46.1,9.1 48.2,2.4 L36,0.6 L31.1,22.2 L31.1,22.2 Z"></path>
                <path d="M30.6,40.5 L27.9,36.6 L26.5,42.7 L29.7,42.7 C29.6,42.7 30,41.9 30.6,40.5"></path>
                <path d="M0.7,28.1 L19.4,24.5 L10.5,11.7 L0.2,27 C0.4,27.4 0.5,27.7 0.7,28.1"></path>
            </g>
            <polygon id="Shape" points="47.6 30.9 49.7 21.5 42.4 18.6 35.5 29"></polygon>
            <path d="M14.5,25.9 L16.8,26.3 L21.6,10.4 L11.9,6.5 C9.4,8.3 7.1,10.5 5.4,13 L14.5,25.9 L14.5,25.9 Z" id="Shape"></path>
            <polygon id="Shape" points="38.3 59.9 39.8 62 40.5 61.7 41.1 59.3"></polygon>
            <polygon id="Shape" points="33.5 32 26.3 42.8 36.9 57.8 41.6 56.8 46.8 34"></polygon>
            <g id="Shape">
                <path d="M34.8,60.6 L15.6,64.3 C16.4,66.1 17.1,67.9 17.8,69.6 L36.6,63.1 L34.8,60.6 L34.8,60.6 Z"></path>
                <path d="M50.2,19.2 L53,6.8 C52.4,6.3 51.8,5.9 51.1,5.5 L43.7,16.6 L50.2,19.2 L50.2,19.2 Z"></path>
                <path d="M34.5,88.3 L20,83.9 L20,85.4 C20,88.9 20.7,91.8 21.5,91.8 L33.7,91.8 L34.5,88.3 L34.5,88.3 Z"></path>
                <path d="M3.7,16 C2.5,18.4 1.7,21 1.3,23.8 L10.2,25.1 L3.7,16 L3.7,16 Z"></path>
                <path d="M33.1,94.4 L22.8,94.4 C24.7,97.3 28.1,99.3 31.9,99.4 L33.1,94.4 L33.1,94.4 Z"></path>
                <path d="M50.8,31.3 L63.1,33.2 C63.3,32 63.5,30.7 63.5,29.4 L63.5,27 L52.8,22.7 L50.8,31.3 L50.8,31.3 Z"></path>
                <path d="M35.4,98.9 C38,98.1 40.2,96.5 41.6,94.3 L36.5,94.3 L35.4,98.9 L35.4,98.9 Z"></path>
                <path d="M37.6,89.2 L37,91.8 L42.9,91.8 C43.2,91.8 43.4,91.5 43.6,91 L37.6,89.2 L37.6,89.2 Z"></path>
                <path d="M9.4,50.8 L15,32.2 L12.6,28.8 L0.9,27 L0.9,29.3 C1.2,37.7 5.7,44.2 9.4,50.8"></path>
                <path d="M44.4,85.4 C44.4,81.8 43.7,79 42.9,79 L40,79 L38.2,87 L44.2,88.8 C44.3,87.8 44.4,86.6 44.4,85.4"></path>
                <path d="M36.6,79 L21.5,79 C21,79 20.6,80 20.3,81.6 L35,86 L36.6,79 L36.6,79 Z"></path>
                <path d="M22.4,8 L24.5,1 C20.9,1.8 17.5,3 14.5,4.8 L22.4,8 L22.4,8 Z"></path>
                <path d="M43.3,64.2 L42.8,66.3 L46,70.9 C47.1,68.2 48.5,64.9 49.8,61.9 L43.3,64.2 L43.3,64.2 Z"></path>
                <path d="M28,0.5 L25.4,9.3 L40.7,15.4 L48.3,4 C43.4,1.6 37.8,0.3 32.2,0.3 C30.8,0.2 29.4,0.3 28,0.5"></path>
                <path d="M55.8,9.2 L53.3,20.4 L63.3,24.4 C62.5,18.2 59.7,13.1 55.8,9.2"></path>
            </g>
        </g>
    </g>
</svg>