<?xml version="1.0" encoding="UTF-8" standalone="no"?>
<svg width="536px" height="537px" viewBox="0 0 536 537" version="1.1" xmlns="http://www.w3.org/2000/svg" xmlns:xlink="http://www.w3.org/1999/xlink" xmlns:sketch="http://www.bohemiancoding.com/sketch/ns">
    <!-- Generator: Sketch 3.4.2 (15857) - http://www.bohemiancoding.com/sketch -->
    <title>srf</title>
    <desc>Created with Sketch.</desc>
    <defs></defs>
    <g id="Page-1" stroke="none" stroke-width="1" fill="none" fill-rule="evenodd" sketch:type="MSPage">
        <g id="srf" sketch:type="MSLayerGroup">
            <g id="Group" sketch:type="MSShapeGroup">
                <path d="M0.67,176.88 C5.625,174.694 10.641,172.638 15.524,170.303 C57.055,150.449 98.456,130.319 140.112,110.733 C167.314,97.943 195.392,96.079 223.346,108.053 C240.847,115.55 257.748,124.449 274.916,132.722 C288.871,139.447 302.877,146.074 316.742,152.979 C320.296,154.749 323.648,157.128 326.664,159.726 C332.087,164.396 332.736,170.002 327.962,175.268 C324.265,179.347 320.017,183.331 315.242,185.952 C300.598,193.99 285.649,201.485 270.691,208.934 C258.021,215.244 245.187,221.225 232.377,227.249 C231.348,227.733 229.731,227.881 228.751,227.417 C209.414,218.259 190.13,208.989 170.839,199.733 C170.65,199.642 170.516,199.433 170.062,198.994 C190.125,189.367 210.051,179.805 230.793,169.851 C227.552,168.28 225.097,167.078 222.632,165.896 C210.773,160.211 198.944,154.462 187.008,148.942 C185.558,148.272 183.248,148.255 181.812,148.936 C142.94,167.375 104.13,185.943 65.314,204.499 C64.343,204.963 63.426,205.542 61.858,206.416 C63.907,207.478 65.409,208.305 66.952,209.046 C99.804,224.834 132.643,240.647 165.547,256.324 C168.103,257.542 168.791,259.007 168.787,261.67 C168.715,308.121 168.764,354.571 168.705,401.022 C168.696,408.116 169.107,415.353 167.89,422.273 C165.538,435.641 156.053,443.044 142.444,443.325 C133.304,443.513 124.699,441.8 116.311,437.702 C77.854,418.918 39.233,400.468 0.67,381.897 L0.67,294.797 C19.968,304.034 39.25,313.304 58.583,322.466 C60.801,323.517 61.658,324.776 61.598,327.28 C61.421,334.756 61.64,342.241 61.478,349.718 C61.422,352.305 62.214,353.711 64.619,354.838 C78.039,361.131 91.375,367.603 104.747,373.997 C105.685,374.445 106.689,374.752 107.84,375.192 C107.965,374.272 108.074,373.837 108.075,373.402 C108.086,345.381 108.066,317.358 108.137,289.337 C108.143,287.177 106.96,286.539 105.361,285.775 C83.241,275.202 61.156,264.555 39.036,253.982 C26.272,247.881 13.46,241.882 0.67,235.837 L0.67,176.88 L0.67,176.88 Z" id="Shape" fill="#FFFFFF"></path>
                <path d="M261.103,389.486 C262.252,389.096 262.991,388.926 263.657,388.607 C282.557,379.576 301.434,370.497 320.368,361.54 C322.234,360.656 322.318,359.433 322.252,357.813 C321.583,341.663 321.142,325.499 320.183,309.365 C319.754,302.153 318.542,294.913 314.888,288.449 C312.103,283.52 308.232,281.828 302.774,283.192 C299.766,283.945 296.779,284.971 293.966,286.271 C284.054,290.852 274.253,295.673 264.336,300.244 C261.878,301.376 261.024,302.797 261.036,305.541 C261.148,332.217 261.103,358.893 261.103,385.568 L261.103,389.486 L261.103,389.486 Z" id="Path"></path>
                <path d="M368.501,0.67 C375.75,4.318 382.97,8.024 390.254,11.601 C402.559,17.642 414.904,23.6 427.228,29.601 C427.602,29.783 427.926,30.069 428.667,30.578 C398.248,45.158 368.169,59.576 337.614,74.222 C338.629,74.956 339.15,75.466 339.773,75.765 C363.583,87.19 387.412,98.573 411.199,110.044 C413.308,111.061 415.01,111.054 417.127,110.03 C435.786,101.003 454.484,92.055 473.226,83.203 C474.405,82.646 476.287,82.583 477.445,83.13 C496.493,92.11 515.477,101.225 534.471,110.319 C534.763,110.459 534.992,110.728 535.642,111.251 C533.229,112.465 531.026,113.621 528.785,114.695 C512.204,122.642 495.653,130.653 478.995,138.436 C476.003,139.833 475.048,141.526 475.052,144.766 C475.145,210.075 475.093,275.384 475.197,340.693 C475.202,344.354 474.343,346.391 470.772,348.047 C452.879,356.346 435.152,364.997 417.358,373.51 C416.487,373.926 415.546,374.199 414.286,374.673 L414.286,370.389 C414.286,304.856 414.268,239.324 414.344,173.792 C414.347,170.902 413.697,169.292 410.86,167.94 C360.558,143.972 310.287,119.939 260.127,95.675 C254.903,93.147 249.897,89.625 245.72,85.598 C238.85,78.975 239.06,71.362 245.386,64.212 C250.28,58.682 256.47,54.908 263.031,51.732 C297.032,35.268 331.053,18.847 365.06,2.393 C366.035,1.922 366.912,1.249 367.833,0.67 C368.054,0.67 368.277,0.67 368.501,0.67 Z" id="Shape" fill="#FFFFFF"></path>
                <path d="M321.601,536.671 C312.506,532.208 303.443,527.679 294.31,523.295 C263.459,508.487 232.6,493.699 201.686,479.024 C199.411,477.944 199.73,476.386 199.73,474.67 C199.723,430.899 199.724,387.129 199.724,343.358 C199.724,320.803 199.76,298.248 199.67,275.693 C199.661,273.362 200.353,272.172 202.491,271.157 C226.655,259.676 250.358,247.108 275.012,236.812 C297.244,227.527 320.624,224.775 343.459,236.045 C359,243.714 368.316,257.024 374.521,272.73 C380.832,288.706 383.281,305.435 383.409,322.505 C383.569,343.83 383.486,365.157 383.395,386.484 C383.385,388.902 384.003,390.217 386.311,391.326 C425.203,409.998 464.041,428.777 502.891,447.534 C503.676,447.913 504.451,448.313 505.834,449.007 C502.635,450.571 499.925,451.934 497.183,453.232 C480.664,461.057 464.123,468.836 447.634,476.725 C445.627,477.685 444.019,477.705 441.998,476.733 C403.124,458.033 364.209,439.421 325.337,420.715 C323.116,419.647 321.366,419.66 319.134,420.733 C301.25,429.326 283.3,437.78 265.375,446.287 C264.199,446.845 263.06,447.478 261.253,448.413 C302.24,468.154 342.626,487.605 383.548,507.315 C372.154,512.792 361.338,517.962 350.547,523.186 C341.329,527.649 332.141,532.173 322.94,536.67 C322.494,536.671 322.048,536.671 321.601,536.671 L321.601,536.671 Z M261.103,389.486 L261.103,385.568 C261.103,358.892 261.148,332.216 261.036,305.541 C261.024,302.797 261.879,301.376 264.336,300.244 C274.253,295.674 284.054,290.852 293.966,286.271 C296.778,284.971 299.766,283.945 302.774,283.192 C308.232,281.828 312.103,283.52 314.888,288.449 C318.542,294.913 319.754,302.153 320.183,309.365 C321.142,325.499 321.583,341.663 322.252,357.813 C322.318,359.432 322.234,360.656 320.368,361.54 C301.433,370.497 282.556,379.576 263.657,388.607 C262.991,388.927 262.252,389.097 261.103,389.486 L261.103,389.486 Z" id="Shape" fill="#FFFFFF"></path>
            </g>
        </g>
    </g>
</svg>