<?xml version="1.0" encoding="UTF-8"?>
<svg width="1417px" height="1417px" viewBox="0 0 1417 1417" version="1.1" xmlns="http://www.w3.org/2000/svg" xmlns:xlink="http://www.w3.org/1999/xlink">
    <!-- Generator: Sketch 41.2 (35397) - http://www.bohemiancoding.com/sketch -->
    <title>bluehill</title>
    <desc>Created with Sketch.</desc>
    <defs></defs>
    <g id="Page-1" stroke="none" stroke-width="1" fill="none" fill-rule="evenodd">
        <g id="bluehill">
            <rect id="Rectangle-path" fill="#037769" x="0" y="0" width="1417" height="1417"></rect>
            <path d="M903.295802,1052.0546 C842.16202,1004.89913 772.479187,979.363116 710.538891,979.363116 C648.27599,979.363116 576.657523,1005.36912 514.87853,1053.15124 L903.295802,1052.0546 Z M515.039833,1053.15124 C389.546212,986.5696 304.217003,857.166223 304.217003,708.65 C304.217003,492.298835 485.360108,316.209979 708.119349,316.209979 C764.897953,316.209979 819.902226,327.646355 871.841745,350.049119 L890.391573,358.038915 L862.48618,412.870854 L1075.72855,376.525112 L979.914657,184.613325 L951.364052,240.228578 L934.104647,232.552106 C862.647482,200.592919 786.673838,184.3 708.119349,184.3 C410.515583,184.3 168.4,419.60735 168.4,708.65 C168.4,997.69265 410.515583,1233 708.280651,1233 C1001.36794,1233 1240.58007,1005.0558 1248,722.122991 L1111.86039,725.099582 C1105.89219,865.939334 1023.14382,987.666238 903.457104,1052.0546 L515.039833,1053.15124 Z M431.968863,624.208814 C462.132497,692.827069 441.324429,756.588781 459.067742,793.717837 C484.714896,846.983149 563.914597,875.025769 651.502047,865.469346 C651.502047,865.469346 682.794801,906.358306 688.924309,964.950149 L736.831257,964.950149 C740.541222,905.888318 807.481906,794.657813 807.481906,794.657813 C913.457881,807.190828 1110.40867,830.69023 1048.95228,476.789229 C1017.98213,513.761622 969.752577,523.318046 865.389631,536.477711 C767.962707,548.854063 708.603257,681.390693 776.673061,758.938721 C808.288421,721.49634 840.387689,695.020347 896.843687,660.084568 C772.156582,768.495145 724.733543,886.462145 713.28104,921.241261 L713.28104,921.084598 C682.472195,849.333089 643.598207,806.564177 586.980905,767.711831 C619.241476,779.461533 653.115075,797.007753 675.374869,820.19383 C725.70136,718.206424 631.984402,629.22202 431.968863,624.208814 L431.968863,624.208814 Z" id="Shape" fill="#FFFFFF"></path>
        </g>
    </g>
</svg>