<?xml version="1.0" encoding="UTF-8" standalone="no"?>
<svg width="455px" height="393px" viewBox="0 0 455 393" version="1.1" xmlns="http://www.w3.org/2000/svg" xmlns:xlink="http://www.w3.org/1999/xlink">
    <!-- Generator: Sketch 3.6.1 (26313) - http://www.bohemiancoding.com/sketch -->
    <title>Group</title>
    <desc>Created with Sketch.</desc>
    <defs></defs>
    <g id="Page-1" stroke="none" stroke-width="1" fill="none" fill-rule="evenodd">
        <g id="Group" transform="translate(1.000000, 0.000000)">
            <path d="M373.592566,357.604923 C373.592566,357.604923 374.888212,341.791599 368.890364,336.120228 C362.892515,330.448856 295.685229,272.083847 289.394273,266.134792 C286.763209,263.646722 348.378044,239.466578 350.595271,235.51405 C352.440334,232.224956 350.595273,169.719476 350.595273,165.972157 C350.595273,162.224838 398.168149,264.681771 398.168149,264.681771" id="Path-168" stroke="#FFFFFF" stroke-width="9" transform="translate(343.740258, 261.738369) rotate(-1.000000) translate(-343.740258, -261.738369) "></path>
            <path d="M310.836322,373.5872 C310.836322,373.5872 312.321369,362.168895 305.737445,355.857494 C304.375818,354.552228 213.900135,278.894832 212.695896,278.033428 C211.491657,277.172023 196.40134,269.868297 193.114276,269.868297 C188.626651,269.868297 162.837672,285.188063 160.620158,285.188063 C158.402644,285.188063 44.568848,257.037819 39.050662,255.69662 C33.909592,254.447081 3.68834301,196.966688 3.68834301,188.958644 C3.68834301,182.112137 12.935601,143.865573 18.819381,127.832584 C19.112825,127.032966 78.769367,57.946487 86.068347,52.545673 C93.367328,47.144859 200.440464,7.352367 200.440464,7.352367 L354.493091,36.996692" id="Path-163" stroke="#FFFFFF" stroke-width="9" transform="translate(179.090717, 190.469783) rotate(-1.000000) translate(-179.090717, -190.469783) "></path>
            <path d="M326.463598,371.668119 C326.463598,371.668119 326.882024,357.357908 321.676915,352.152494 C316.471807,346.94708 223.154989,268.109357 220.552785,266.354383 C217.950582,264.599409 191.210012,241.959165 190.085103,241.564054 C188.960195,241.168943 121.165571,228.49798 121.165571,227.794645 C123.076175,221.784222 166.062114,86.271007 162.648538,84.702002 C159.170473,83.103356 84.889906,53.283659 84.889906,53.283659 C84.889906,53.283659 120.265798,227.261869 119.131223,228.989469 C117.996648,230.717069 18.631444,127.38146 18.631444,127.38146" id="Path-164" stroke="#FFFFFF" stroke-width="9" transform="translate(172.551535, 212.475889) rotate(-1.000000) translate(-172.551535, -212.475889) "></path>
            <path d="M342.64454,363.687535 C342.64454,363.687535 341.964029,350.081578 337.258485,345.660374 C332.552942,341.239171 229.663945,253.430585 227.31607,251.524434 C225.461682,250.018925 260.233321,213.558476 260.935559,211.372701 C261.637797,209.186925 318.254503,70.839569 317.163179,69.521947" id="Path-164" stroke="#FFFFFF" stroke-width="9" transform="translate(284.944501, 216.604741) rotate(-1.000000) translate(-284.944501, -216.604741) "></path>
            <path d="M356.70839,360.849816 C356.70839,360.849816 358.211663,346.921105 352.588677,341.221184 C346.965691,335.521264 255.984741,257.248842 252.738135,254.752938 C251.207061,253.57589 280.428373,224.717209 281.697446,221.680466 C284.103299,215.923544 353.891457,32.993493 353.891457,32.993493" id="Path-164" stroke="#FFFFFF" stroke-width="9" transform="translate(304.785444, 196.921655) rotate(-1.000000) translate(-304.785444, -196.921655) "></path>
            <path d="M317.87063,286.678861 C319.784591,284.565381 358.78028,267.333514 362.441721,265.991483 C366.588101,264.471706 393.496994,264.524407 396.635364,264.524416 C399.773735,264.524426 449.293846,175.250588 449.293842,170.094874 C449.29384,167.63735 441.441994,116.417714 440.070839,113.46642 C439.048724,111.266405 398.412911,66.040263 395.442993,61.961108 C392.473076,57.881954 350.824848,171.354212 350.824848,171.354212 L447.335749,172.475011" id="Path-164" stroke="#FFFFFF" stroke-width="9" transform="translate(383.582236, 174.266284) rotate(-1.000000) translate(-383.582236, -174.266284) "></path>
            <path d="M259.860651,212.833133 C259.860651,212.833133 161.716791,84.093341 161.716791,83.904623 C161.716791,82.318793 312.60763,74.222394 314.654383,71.919509 C316.701136,69.616623 194.963995,13.174123 196.140699,13.174123 C197.317404,13.174123 162.436334,83.904623 162.436334,83.904623" id="Path-346" stroke="#FFFFFF" stroke-width="9" transform="translate(238.198349, 113.003628) rotate(-1.000000) translate(-238.198349, -113.003628) "></path>
            <path d="M440.352719,112.855053 L351.596096,169.772701" id="Path-395" stroke="#FFFFFF" stroke-width="9" transform="translate(395.974407, 141.313877) rotate(-1.000000) translate(-395.974407, -141.313877) "></path>
            <circle id="Oval-20" fill="#FFFFFF" transform="translate(82.491028, 56.500326) rotate(-1.000000) translate(-82.491028, -56.500326) " cx="82.491028" cy="56.500326" r="11"></circle>
            <circle id="Oval-20" fill="#FFFFFF" transform="translate(18.774954, 130.623614) rotate(-1.000000) translate(-18.774954, -130.623614) " cx="18.774954" cy="130.623614" r="11"></circle>
            <circle id="Oval-20" fill="#FFFFFF" transform="translate(119.470211, 224.880900) rotate(-1.000000) translate(-119.470211, -224.880900) " cx="119.470211" cy="224.8809" r="11"></circle>
            <circle id="Oval-20" fill="#FFFFFF" transform="translate(194.723364, 11.534753) rotate(-1.000000) translate(-194.723364, -11.534753) " cx="194.723364" cy="11.534753" r="11"></circle>
            <circle id="Oval-20" fill="#FFFFFF" transform="translate(437.554066, 114.312427) rotate(-1.000000) translate(-437.554066, -114.312427) " cx="437.554066" cy="114.312427" r="11"></circle>
            <path d="M308.788203,82.553188 C314.863335,82.553188 319.788203,77.628321 319.788203,71.553188 C319.788203,65.478056 314.863335,60.553188 308.788203,60.553188 C302.713071,60.553188 297.788203,65.478056 297.788203,71.553188 C297.788203,77.628321 302.713071,82.553188 308.788203,82.553188 L308.788203,82.553188 Z" id="Oval-20" fill="#FFFFFF" transform="translate(308.788203, 71.553188) rotate(-1.000000) translate(-308.788203, -71.553188) "></path>
            <circle id="Oval-20" fill="#FFFFFF" transform="translate(163.019869, 86.099412) rotate(-1.000000) translate(-163.019869, -86.099412) " cx="163.019869" cy="86.099412" r="11"></circle>
            <circle id="Oval-20" fill="#FFFFFF" transform="translate(392.688148, 65.087948) rotate(-1.000000) translate(-392.688148, -65.087948) " cx="392.688148" cy="65.087948" r="11"></circle>
            <path d="M352.527047,181.804957 C358.602179,181.804957 363.527047,176.880089 363.527047,170.804957 C363.527047,164.729824 358.602179,159.804957 352.527047,159.804957 C346.451915,159.804957 341.527047,164.729824 341.527047,170.804957 C341.527047,176.880089 346.451915,181.804957 352.527047,181.804957 L352.527047,181.804957 Z" id="Oval-20" fill="#FFFFFF" transform="translate(352.527047, 170.804957) rotate(-1.000000) translate(-352.527047, -170.804957) "></path>
            <circle id="Oval-20" fill="#FFFFFF" transform="translate(347.153977, 34.878027) rotate(-1.000000) translate(-347.153977, -34.878027) " cx="347.153977" cy="34.878027" r="11"></circle>
            <rect id="Rectangle-187" fill="#149882" transform="translate(352.201237, 368.174013) rotate(-12.000000) translate(-352.201237, -368.174013) " x="298.774717" y="354.174013" width="106.85304" height="28"></rect>
        </g>
    </g>
</svg>