<svg id="Layer_1" data-name="Layer 1" xmlns="http://www.w3.org/2000/svg" xmlns:xlink="http://www.w3.org/1999/xlink" viewBox="0 0 300 300"><defs><style>.cls-1{fill:none;}.cls-2{clip-path:url(#clip-path);}.cls-3{fill:#fff;stroke:#fff;stroke-miterlimit:10;}.cls-4{clip-path:url(#clip-path-2);}</style><clipPath id="clip-path"><rect class="cls-1" x="-151.55" y="-154.01" width="610.33" height="594.41"/></clipPath><clipPath id="clip-path-2"><rect class="cls-1" x="-151.55" y="-150.99" width="610.33" height="588.35"/></clipPath></defs><title>sweepArtboard 1</title><rect class="cls-1" x="-156.17" y="-150.99" width="609.8" height="594.41"/><g class="cls-2"><path class="cls-3" d="M244.51,140.6c2.12,4.35,2.16,5.41-.39,9.57-11.66,19-23.92,37.58-38.87,54.16-6.71,7.45-14.34,14.06-21.31,21.29-2.73,2.83-6.88,5.09-5.79,10.27,1,4.81,4.71,5.65,8.68,6.24,4.3.63,8.11-1,9.8-5.2,1-2.59,2.46-2.82,4.64-2.79,5.12.08,10.25.25,15.36,0,4.53-.2,9-3.76,8.41-7.51-1.42-8.75,2.69-12.22,10.5-13.15a10.15,10.15,0,0,0,2.34-.85c11.55-4.33,14.82-13.45,8.17-23.79A59.75,59.75,0,0,0,252,186.1c4.55-2.74,9.37-5.23,13.4-8.63,3.86-3.24,3.24-8.11-.58-11.55-1.72-1.55-3.5-3-5.41-4.66.71-.78,1.31-1.34,1.8-2,3-3.93,6.45-7.58,8.7-11.89,2.47-4.76.45-8.58-4.45-10.72a19.88,19.88,0,0,0-3.83-1.53c-3-.61-3.54-2.32-3.18-5.12A100.7,100.7,0,0,0,259.58,116c-.09-5.84-3.24-8.85-9-8.25a15.83,15.83,0,0,0-8.38,3.72c-2.76,2.49-4.58,6-6.91,9.27-3.9-2.31-8.35-4.46-12.42-.69a23.5,23.5,0,0,0-5.74,8.8c-1.63,4.36-2.31,9.08-3.3,13.67-1.45,6.75-1.42,6.87-8.3,6.9-4.06,0-6.66,1.51-8.18,5.47A56.82,56.82,0,0,0,194,180.2c.22,2.84-.59,4-3.6,4.05-4.87.11-8.61,2.84-11.42,6.57-6.35,8.43-8.53,18.15-7.6,28.54.25,2.81,1.5,5.54,2.52,9.12C202.69,202.73,223.14,171.76,244.51,140.6ZM61.35,188.52c-5.07,3.34-6.6,7.64-4.61,12.78,2.35,6.11,7.22,9.62,13,12,4,1.71,8.2,3.15,12.44,4.76-.21,1.61-.45,3.1-.59,4.6-.84,8.55,2,12.58,10.6,13.55,4.61.52,9.37,0,14-.3,2.28-.12,3.67.29,4.87,2.65,3.23,6.36,7.63,7.85,14.51,5.52,5.41-1.83,6.94-7.7,3-11.87-1.22-1.29-2.81-2.24-4.07-3.49a334.86,334.86,0,0,1-52.26-67.39c-3.5-5.94-6.84-12-9.92-18.16-.59-1.19.39-3.19.65-4.81,1.13,1,2.55,1.84,3.37,3.07,10.1,15,19.57,30.51,30.33,45,9.27,12.52,19.94,24,30.1,35.84,2.51,2.91,5.49,5.43,8.72,8.59,4.24-10.84,3.48-20.5,0-30.19-3.35-9.45-8.71-16.58-19.93-17.6,0-6.45.39-12.85-.09-19.19-.74-9.87-2.91-17.65-14.88-17.4-2.77.05-3.91-1.77-4.42-4.51C95.12,136,94.17,129.8,92.16,124c-3.91-11.31-8-11.11-16.13-8.57-2.61.82-3.44,0-4.61-2.27-1.6-3.12-3.45-6.94-6.26-8.41a18.15,18.15,0,0,0-11.79-1.59c-3.83,1-5.5,5.23-5.18,9.5.34,4.42.89,8.83,1.36,13.24.32,3.08-.14,5.22-4,5.73-8.59,1.11-11.49,6.3-7.54,14,2.4,4.69,6,8.78,9.09,13.29-1.15.9-2.57,2-3.93,3.09-4.92,4.09-5.71,8.19-2.2,13.36a15.71,15.71,0,0,0,4.86,4.42C50.77,182.81,55.89,185.5,61.35,188.52Zm69.32-106.3c-1.35.38-2,.62-2.65.73-8,1.37-10.68,4.23-11.16,12.41a30.77,30.77,0,0,0,4.34,17.07c2.73,4.85,5.85,9.49,8.82,14.25-3.87,1-7.66,1.09-10.37,2.84-5.7,3.69-6.43,12.06-1.75,17.64,3,3.61,6.76,6.65,10.17,9.93-5.3,6.19-5.63,10.37-.4,16.6a69.1,69.1,0,0,0,11.81,11.38c4,2.92,8.8,4.68,13.79,7.22.2-2.26.37-3.35.37-4.43q.21-35.64.4-71.3a96.57,96.57,0,0,1,.58-13.3c.27-1.73,2.37-3.21,3.64-4.79.93,1.51,2.63,3,2.65,4.53q.3,35.43.18,70.87c0,6.33-.63,12.65-1,19,10.31,0,23.94-6.89,24.44-19.75.22-5.62,1-11,5.27-15.38,1.63-1.65,2.41-4.37,3.07-6.74,1.78-6.43,2.88-13.39-1.87-18.63-3.51-3.87-3.65-6.29-.44-9.85a19.39,19.39,0,0,0,3.62-5.55c2.05-5.07,4.72-10.14,5.39-15.43,1.08-8.34-1.25-10.45-9.66-11.62-.66-.1-1.3-.34-2.07-.54.38-1.78.66-3.41,1.09-5,3.07-11.5,1.16-16.76-9.1-23-2.28-1.39-3-2.66-2.78-5.11a12.38,12.38,0,0,0-5.78-12.1,15.87,15.87,0,0,0-13.83-2.29c-5.09,1.48-5.82,5.8-6.16,10.24-.17,2-.13,4.18-3.24,3.13-5.51-1.87-10.52-.67-15.41,2.24-7.66,4.55-9.46,11.34-4.84,18.78A63.15,63.15,0,0,1,130.67,82.22Z"/><path class="cls-3" d="M159.19,250.9c2.28-1.7,3.61-2.67,4.91-3.67a14.84,14.84,0,0,1,2.65-2.09c2.67-1.18,5.95-2.86,7.88.35s-.22,5.63-3.15,7.27a39.9,39.9,0,0,0-4.71,2.82c-1.44,1.07-3.48,2.22-3.83,3.69-.88,3.7-2.84,5.47-6.49,5.27-4-.2-8.7,1.2-10.82-4.29-.43-1.11-1.88-2-3.07-2.58-2.18-1-4.5-1.62-6.76-2.4-2.69-.93-4.85-2.53-3.47-5.61s4.32-3.41,7.25-2.32c2.1.79,4,2,6.11,2.85a48.48,48.48,0,0,0,5.13,1.43V219.41c0-2.41.13-4.84,0-7.25-.22-3.15.93-4.9,4.19-5,3.6-.16,4.17,2.25,4.18,5,0,10.52,0,21.05,0,31.57v7.17"/></g></svg>