<?xml version="1.0" encoding="utf-8"?>
<!-- Generator: Adobe Illustrator 16.0.0, SVG Export Plug-In . SVG Version: 6.00 Build 0)  -->
<!DOCTYPE svg PUBLIC "-//W3C//DTD SVG 1.1//EN" "http://www.w3.org/Graphics/SVG/1.1/DTD/svg11.dtd">
<svg version="1.1" id="Layer_1" xmlns="http://www.w3.org/2000/svg" xmlns:xlink="http://www.w3.org/1999/xlink" x="0px" y="0px"
	 width="400px" height="400px" viewBox="0 0 400 400" enable-background="new 0 0 400 400" xml:space="preserve">
<g>
	<path fill="#FFFFFF" stroke="#FFFFFF" stroke-miterlimit="10" d="M161.261,259.695c0,0-11.624,23.679-12.916,29.705
		c-1.292,6.027-5.597,25.832-5.597,25.832l50.37,27.121c0,0-2.844-16.056-3.875-17.865
		C188.055,322.4,161.261,259.695,161.261,259.695z M143.61,217.075c-0.956-1.557-1.914-4.273-2.796-7.388
		c-2.295-8.096-4.091-18.874-4.091-18.874L88.72,215.568l49.988,28.861l12.437-7.336L143.61,217.075z M257.911,58v61.133
		l50.706,29.275V85.553L257.911,58z M304.838,152.713l-49.572,28.621l-49.572-28.621l49.572-28.621L304.838,152.713z
		 M201.084,159.171c0,0,6.889,28.414,11.623,37.884c4.736,9.471,20.234,45.634,20.234,45.634l13.347-31.427
		c0,0,6.457-23.248,5.166-24.539S201.084,159.171,201.084,159.171z M200.653,343.431c0-7.75-6.458-25.4-14.638-46.495
		c-8.18-21.096-20.234-49.079-30.566-68.022c-10.332-18.942-12.915-48.862-12.915-48.862l-58.12,30.352V149.7L251.454,58v61.133
		l-58.12,31.427c0,0,6.458,41.76,16.36,57.258s30.997,68.021,33.579,75.34c2.584,7.318,8.181,26.691,8.181,32.289v5.598
		L200.653,343.431z"/>
</g>
</svg>
