<?xml version="1.0" encoding="utf-8"?>
<!-- Generator: Adobe Illustrator 22.0.1, SVG Export Plug-In . SVG Version: 6.00 Build 0)  -->
<svg version="1.1" id="Layer_1" xmlns="http://www.w3.org/2000/svg" xmlns:xlink="http://www.w3.org/1999/xlink" x="0px" y="0px"
	 viewBox="0 0 527 527" style="enable-background:new 0 0 527 527;" xml:space="preserve">
<style type="text/css">
	.st0{fill:none;stroke:#FFFFFF;stroke-width:14.5455;stroke-miterlimit:10;}
</style>
<title>Asset 2</title>
<g id="Layer_2_1_">
	<g id="Layer_3">
		<polygon class="st0" points="78.2,257.2 262.5,92 344.4,164.9 448,257.2 384.5,257.2 384.5,408.2 306.9,408.2 305.8,282.9 
			219.3,282.9 219.3,408.2 142.8,408.2 142.8,256.1 		"/>
		<polyline class="st0" points="344.4,164.9 343.8,92 384.5,92 384.5,197.5 		"/>
		<polygon class="st0" points="70.9,259 255.2,93.8 337.1,166.7 440.7,259 377.3,259 377.3,410 299.6,410 298.5,284.7 212.1,284.7 
			212.1,410 135.5,410 135.5,257.9 		"/>
		<polyline class="st0" points="337.1,166.7 336.5,93.8 377.3,93.8 377.3,199.3 		"/>
	</g>
</g>
</svg>
