<?xml version="1.0" encoding="UTF-8" standalone="no"?>
<svg width="78px" height="133px" viewBox="0 0 78 133" version="1.1" xmlns="http://www.w3.org/2000/svg" xmlns:xlink="http://www.w3.org/1999/xlink">
    <!-- Generator: Sketch 3.6.1 (26313) - http://www.bohemiancoding.com/sketch -->
    <title>Group</title>
    <desc>Created with Sketch.</desc>
    <defs></defs>
    <g id="Page-1" stroke="none" stroke-width="1" fill="none" fill-rule="evenodd">
        <g id="Artboard-45" transform="translate(-111.000000, -111.000000)">
            <g id="Group" transform="translate(111.000000, 111.000000)">
                <path d="M0,88.9461502 L20.2323475,88.9461502 L47.2328758,80.9584638 L60.4482765,69.591291 L78,39 L78,133 L0,133 L0,88.9461502 Z" id="Rectangle-448" fill="#FFFFFF"></path>
                <path d="M75,130 L59,130 L59,100 L75,100 L75,130 Z M78,131 L78,133 L0,133 L0,131 L4.13357557e-15,88.9490356 L3,88.9490356 L3,97 L19,97 L19,88.9499969 L20.2250366,88.9499969 L22,88.4217529 L22,97 L56,97 L56,73.4153671 L59,70.8501816 L59,97 L75,97 L75,44.2080941 L78,39 L78,131 Z M56,130 L22,130 L22,100 L56,100 L56,130 Z M19,130 L3,130 L3,100 L19,100 L19,130 Z" id="Combined-Shape" fill="#386EA6"></path>
                <path d="M75,3 L59,3 L59,33 L75,33 L75,3 Z M78,2.5 L78,0 L1.5,0 L2.27883283e-14,0 L6.45125672e-15,88.9348755 L3,88.9348755 L3,36 L19,36 L19,88.9598999 L20.1958008,88.9598999 L22,88.4197388 L22,68 L56,68 L56,73.4196167 L59,70.8759155 L59,36 L75,36 L75,44.2205758 L78,39 L78,2.5 Z M56,3 L22,3 L22,33 L56,33 L56,3 Z M56,65 L22,65 L22,36 L56,36 L56,65 Z M19,3 L3,3 L3,33 L19,33 L19,3 Z" id="Combined-Shape" fill="#FFFFFF"></path>
            </g>
        </g>
    </g>
</svg>