<svg id="Layer_1" data-name="Layer 1" xmlns="http://www.w3.org/2000/svg" xmlns:xlink="http://www.w3.org/1999/xlink" viewBox="0 0 300 300"><defs><style>.cls-1,.cls-3{fill:none;}.cls-2{clip-path:url(#clip-path);}.cls-3{stroke:#fff;stroke-miterlimit:10;}.cls-4{clip-path:url(#clip-path-2);}.cls-5{fill:#fff;}</style><clipPath id="clip-path"><rect class="cls-1" x="-1" y="0.7" width="302.13" height="298.3"/></clipPath><clipPath id="clip-path-2"><rect class="cls-1" x="-56.27" y="-57.12" width="406.59" height="410.96"/></clipPath></defs><title>rootsArtboard 1</title><g class="cls-2"><rect class="cls-3" x="-56.27" y="-57.12" width="406.59" height="410.96"/><g class="cls-4"><path class="cls-5" d="M123.73,137.72c0-3.17,0-6.33,0-9.5a1.27,1.27,0,0,0-.39-.8c-2.44-2.24-4.89-4.47-7.74-7.07-.16,4.68-1.17,8.83,2.78,12.1,1.8,1.5,3.08,3.64,4.61,5.49l.76-.22m49.54,2.66c3.57-3.51,6.68-6.5,9.7-9.59a3.8,3.8,0,0,0,.91-2.25c.11-2.5,0-5,0-8-2.29,1.64-4.19,3.49-6.47,4.52-3.78,1.72-4.58,4.56-4.22,8.3.2,2.09,0,4.22,0,7m-46.55,21.11c4.14,0,8.38,0,12.62,0,9.34-.06,18.68-.16,28-.22,4.92,0,4.92,0,4.34-5.42a217.09,217.09,0,0,1-45-.65Zm45.1-9.87c.13-1.21.25-2.28.33-3.34,0-.2-.13-.42-.31-.9-3.48,0-7,0-10.59,0-10.65-.09-21.3-.23-31.94-.31-1.11,0-2.54-.5-2.58,1.59,0,1.7.11,2.9,2.22,3.14,13.4,1.5,26.81,2,40.24.45a21.64,21.64,0,0,0,2.63-.62M126.88,129c0,4.15,0,8.14,0,12.13,0,1.79,1.09,2.17,2.54,2.19,4.72.08,9.43.2,14.15.23,7.83,0,15.67-.06,23.51.11,2.41,0,3-.76,2.89-3-.15-3.3,0-6.62.05-9.92,0-1.17-.37-1.73-1.54-1.73h-41.6m6.05,95.88c-12.77-2.22-24.25-7.65-35.38-14.38-8.19,9.18-15.59,18.6-18.2,31-.7,3.31-3.21,4.93-6.2,4.22-2.61-.61-3.75-3.09-3-6.45A54.09,54.09,0,0,1,80.81,218c3.28-4.17,6.76-8.18,10.19-12.32a1.72,1.72,0,0,0-.27-.47c-.48-.49-1-1-1.47-1.44a72.13,72.13,0,0,1-17.07-22,79.19,79.19,0,0,1-8.13-31.2,90.22,90.22,0,0,1,9-46.27c.77-1.56.46-2.35-.66-3.28-1.82-1.51-3.67-3-5.39-4.62-1.52-1.43-1.34-2.14.56-3,.7-.3,1.42-.57,2.14-.83l25.83-9c1.91-.66,2.5-.15,2.14,2q-2.5,14.78-5.1,29.53a22.83,22.83,0,0,1-.74,2.44l-7.7-6.21c-.18.31-.31.49-.41.69-.24.48-.48,1-.68,1.47-9.21,22.78-8.62,45.11,3.34,66.79A49.86,49.86,0,0,0,99.9,196a2.28,2.28,0,0,0,2.09.1c5.44-3.79,10.8-7.69,16.2-11.52a4,4,0,0,0,1.81-3.7c-.08-3,0-6,0-9,0-4.42-.82-5.27-5.18-5.3-3.26,0-6.54.13-9.8.1-2.32,0-3.58-1.08-3.45-2.78.16-2.15,1.69-2.45,3.44-2.45,4.1,0,8.21,0,12.32,0h5.6c0-1.88-.06-3.41,0-4.93a2,2,0,0,0-1.78-2.41A20.85,20.85,0,0,1,116,151.8a3,3,0,0,1-.84-4.45,3.68,3.68,0,0,1,2.42-1.31c.4-.07,1.2.83,1.41,1.44.69,1.92,2.17,2.28,4.58,2.59-.64-2.22-.72-4.38-1.78-5.82-3.24-4.43-6.88-8.57-10.28-12.9a4.36,4.36,0,0,1-.89-2.53c0-4.6.08-9.21.28-13.81a4.32,4.32,0,0,1,1.19-2.38c3.6-4,7.36-8,10.87-12.1A6.52,6.52,0,0,1,128.47,98c8.6.15,17.2.19,25.79.24,5.78,0,11.57-.11,17.34.08a6.85,6.85,0,0,1,4.47,1.64c4.13,4.49,8,9.24,11.87,14a4.75,4.75,0,0,1,.95,2.7c.09,4.15.06,8.31,0,12.46a4.21,4.21,0,0,1-.79,2.51c-3.45,3.9-6.81,7.89-10.58,11.43-2.22,2.1-1.68,4.22-1.4,6.59a2.36,2.36,0,0,0,.95-1.1,1.8,1.8,0,0,1,2.79-1c1.08.69,2.37,1.78,2.58,2.89.17.89-1,2.14-1.82,3.09a3.11,3.11,0,0,1-1.81.91c-2.87.46-3.51,2.21-3.21,4.87.15,1.44.48,2.05,2,2.05,4.56,0,9.12.14,13.68.2,1.37,0,2.74,0,4.11,0a2.39,2.39,0,0,1,2.67,2.28c.14,1.66-.89,2.53-2.47,2.71a23.12,23.12,0,0,1-2.5.11c-3.35,0-6.69,0-10,.09-2.22,0-3.29,1.27-3.31,3.52,0,3.54-.07,7.07-.14,10.61a4,4,0,0,0,1.78,3.72c5.66,4,11.27,8,17.12,12.18a69.06,69.06,0,0,0,19.88-28.16,71.79,71.79,0,0,0,4.13-35.17c2.61,2.35,4.64,4.16,6.65,6,1.66,1.51,2.06,1.43,2.59-.83.84-3.56,1.59-7.15,2.38-10.73a79.71,79.71,0,0,1-2.63,42.46c-4.69,13.88-12.75,25.47-23.4,35.36,7.42,7.47,13.84,15.21,18.11,24.51a54.07,54.07,0,0,1,3.31,10.23,4.23,4.23,0,0,1-3.22,5.28,5.08,5.08,0,0,1-5.77-3c-.21-.49-.3-1-.49-1.53-1.56-4.21-2.82-8.59-4.79-12.59a70.59,70.59,0,0,0-13.11-17.79c-1.64,1-3.17,1.8-4.62,2.77a79.38,79.38,0,0,1-29.61,12c-5.06,1-5,1.06-5.1,6.38a33.5,33.5,0,0,1-.66,4.39,26.5,26.5,0,0,1-4.25-1.85c-7.73-5.16-15.41-10.4-23.08-15.65a10.66,10.66,0,0,1-1.59-1.69,9.76,9.76,0,0,1,1.87-1.51c3.89-1.75,7.81-3.41,11.71-5.11,4.89-2.12,9.78-4.23,14.66-6.38,1.5-.66,2.16-.19,2.09,1.44-.08,1.92-.13,3.85-.22,5.76-.07,1.33.28,2.07,1.82,1.73a30.9,30.9,0,0,0,4.25-.72c5.14-1.88,10.29-3.76,15.29-6,2.64-1.17,5-3.07,8.1-5-5.26-3.82-9.92-7.21-14.6-10.57a2.43,2.43,0,0,0-1.3-.4c-2.88-.09-3.31-1.84-3.21-4.33.2-5,.21-10,.2-15,0-3-1-4-3.85-4.34a17.27,17.27,0,0,0-2.27-.22c-12.55.07-25.1.12-37.65.26-3.47,0-4.23,1-4.24,4.47,0,5.38,0,10.77,0,16.15,0,1.58-.38,2.52-2.22,2.82a11.59,11.59,0,0,0-4.09,1.82,70.13,70.13,0,0,0-5.8,4.06c-2.12,1.65-4.12,3.45-6.31,5.29,7.2,5.4,15.47,7.08,23.25,10.13-2.46,1.23-4.92,2.12-7.34,3.11a9.36,9.36,0,0,0-1.78,1.27,7.86,7.86,0,0,0,1.42,1.9c3.29,2.45,6.64,4.8,10,7.19"/><path class="cls-5" d="M210.5,103l-5.76,2.37c-1.65.69-1.67,1.73-.39,2.74,5.31,4.21,10.68,8.35,16,12.53,1.63,1.28,3.16,2.65,4.79,3.91,1.3,1,2.68,1.93,4.39,3.15a21.57,21.57,0,0,0,.73-2.71q1.83-13.81,3.57-27.65a10.76,10.76,0,0,0-.35-2.6,13.85,13.85,0,0,0-2.36.42c-2.07.78-4.09,1.67-6.13,2.51-1.48.6-2.48.31-3.43-1.16a81.35,81.35,0,0,0-28.8-27c-16.34-9.15-34-13.22-52.69-11.1a102.83,102.83,0,0,0-13.4,2.68A84.67,84.67,0,0,0,97.1,75.48c-.49.37-.95.76-1.41,1.17a5.69,5.69,0,0,0-.58.86c2.93-.79,5.55-1.51,8.17-2.2a19.11,19.11,0,0,1,2.22-.48c1.68-.19,2.46.28,1.81,2.21-.92,2.72-1.66,5.5-2.6,8.71,22.54-15.84,46.37-19.37,71.64-10A70.07,70.07,0,0,1,210.5,103"/></g></g></svg>