<?xml version="1.0" encoding="UTF-8" standalone="no"?>
<svg width="265px" height="173px" viewBox="0 0 265 173" version="1.1" xmlns="http://www.w3.org/2000/svg" xmlns:xlink="http://www.w3.org/1999/xlink">
    <!-- Generator: Sketch 40.3 (33839) - http://www.bohemiancoding.com/sketch -->
    <title>TCATshelter</title>
    <desc>Created with Sketch.</desc>
    <defs></defs>
    <g id="Page-1" stroke="none" stroke-width="1" fill="none" fill-rule="evenodd">
        <g id="TCATshelter">
            <ellipse id="XMLID_12_" fill="#FFFFFF" cx="65" cy="77.2" rx="12" ry="11.4"></ellipse>
            <path d="M70.6,88.8 L58.9,88.8 C52.3,88.8 47,93.9 47,100.1 L47,132.7 C47,135.7 49.4,138.1 52.4,138.4 L52.4,172.1 L77,172.1 L77,138.4 C80,138.1 82.4,135.7 82.4,132.7 L82.4,100.1 C82.5,93.9 77.1,88.8 70.6,88.8 L70.6,88.8 Z" id="XMLID_11_" fill="#FFFFFF"></path>
            <path d="M112.7,105.4 C112.7,104.6 112.8,103.8 112.8,103 L116.2,13.9 C117.3,6.3 123.9,0.6 131.7,0.6 L245.2,0.6 C253,0.6 259.6,6.3 260.7,13.9 L264.1,103 C264.1,103.8 264.2,104.6 264.2,105.4 L264.9,127.8 C265.1,134.7 262.7,141.5 258.3,146.8 L258.3,166.5 C258.3,169.7 254.7,172.3 250.3,172.3 L237.6,172.3 C233.2,172.3 229.6,169.7 229.6,166.5 L229.6,157 L147,157 L147,166.5 C147,169.7 143.4,172.3 139,172.3 L126.3,172.3 C121.9,172.3 118.3,169.7 118.3,166.5 L118.3,146.8 C113.8,141.5 111.4,134.8 111.7,127.8 L112.7,105.4 L112.7,105.4 Z M138.2,136.1 C145.7,136.1 151.9,131.7 151.9,126.3 C151.9,120.9 145.8,116.5 138.2,116.5 C130.7,116.5 124.5,120.9 124.5,126.3 C124.5,131.7 130.6,136.1 138.2,136.1 L138.2,136.1 Z M132.4,99.1 C173.5,103.4 207,103.8 244.8,99.3 C249.7,98.7 253.2,95.6 253,92.1 C252.5,79.9 251.6,53.9 251.6,53.9 C251.2,51.7 248.5,50 245.5,50 C226.9,47.8 148.6,47.6 131.5,50 C128.5,50 125.8,51.7 125.4,53.9 C125.4,53.9 124.5,79.7 124,91.9 C123.9,95.4 127.5,98.5 132.4,99.1 L132.4,99.1 Z M239.4,136.1 C246.9,136.1 253.1,131.7 253.1,126.3 C253.1,120.9 247,116.5 239.4,116.5 C231.8,116.5 225.7,120.9 225.7,126.3 C225.7,131.7 231.8,136.1 239.4,136.1 L239.4,136.1 Z" id="XMLID_4_" fill="#FFFFFF"></path>
            <rect id="XMLID_1_" fill="#FFFFFF" x="0.8" y="6.7" width="106.9" height="13.9"></rect>
            <rect id="XMLID_10_" fill="#FFFFFF" x="165.1" y="5.3" width="50.9" height="20.1"></rect>
            <rect id="XMLID_3_" fill="#FFFFFF" x="0.8" y="15.4" width="16.6" height="157.4"></rect>
            <path d="M236.7,30.9 L140.3,30.9 C135.1,30.9 130.8,26.6 130.8,21.4 L130.8,21.4 C130.8,16.2 135.1,11.9 140.3,11.9 L236.7,11.9 C241.9,11.9 246.2,16.2 246.2,21.4 L246.2,21.4 C246.2,26.6 241.9,30.9 236.7,30.9 L236.7,30.9 Z" id="XMLID_2_" fill="#323A5B"></path>
            <path d="M220.5,148.8 L156.6,148.8 C156,148.8 155.5,148.3 155.5,147.7 L155.5,147.7 C155.5,147.1 156,146.6 156.6,146.6 L220.5,146.6 C221.1,146.6 221.6,147.1 221.6,147.7 L221.6,147.7 C221.6,148.3 221.1,148.8 220.5,148.8 L220.5,148.8 Z" id="XMLID_8_" fill="#323A5B"></path>
            <path d="M220.6,144.8 L156.7,144.8 C156.1,144.8 155.6,144.3 155.6,143.7 L155.6,143.7 C155.6,143.1 156.1,142.6 156.7,142.6 L220.6,142.6 C221.2,142.6 221.7,143.1 221.7,143.7 L221.7,143.7 C221.7,144.3 221.2,144.8 220.6,144.8 L220.6,144.8 Z" id="XMLID_16_" fill="#323A5B"></path>
            <path d="M220.5,140.2 L156.6,140.2 C156,140.2 155.5,139.7 155.5,139.1 L155.5,139.1 C155.5,138.5 156,138 156.6,138 L220.5,138 C221.1,138 221.6,138.5 221.6,139.1 L221.6,139.1 C221.6,139.7 221.1,140.2 220.5,140.2 L220.5,140.2 Z" id="XMLID_17_" fill="#323A5B"></path>
        </g>
    </g>
</svg>