<?xml version="1.0" encoding="UTF-8" standalone="no"?>
<svg width="101px" height="102px" viewBox="0 0 101 102" version="1.1" xmlns="http://www.w3.org/2000/svg" xmlns:xlink="http://www.w3.org/1999/xlink">
    <!-- Generator: Sketch 40.2 (33826) - http://www.bohemiancoding.com/sketch -->
    <title>Group</title>
    <desc>Created with Sketch.</desc>
    <defs></defs>
    <g id="Page-1" stroke="none" stroke-width="1" fill="none" fill-rule="evenodd">
        <g id="Artboard" transform="translate(-196.000000, -149.000000)" fill="#FFFFFF">
            <g id="Group" transform="translate(196.000000, 149.000000)">
                <path d="M95.55,29.39 C94.7836354,25.2428132 93.1514699,21.3038084 90.76,17.83 L94.45,14.14 L86.67,6.32 L82.98,10.01 C79.5061916,7.61853012 75.5671868,5.98636462 71.42,5.22 L71.42,0 L60.42,0 L60.42,5.22 C56.2728132,5.98636462 52.3338084,7.61853012 48.86,10.01 L45.19,6.32 L37.41,14.1 L41.1,17.79 C38.7072401,21.2667857 37.0750209,25.2093275 36.31,29.36 L31.09,29.36 L31.09,40.36 L36.31,40.36 C37.0763646,44.5071868 38.7085301,48.4461916 41.1,51.92 L37.41,55.61 L45.19,63.39 L48.88,59.7 C52.3538084,62.0914699 56.2928132,63.7236354 60.44,64.49 L60.44,69.71 L71.44,69.71 L71.44,64.49 C75.587701,63.7253733 79.5270573,62.0930621 83,59.7 L86.69,63.39 L94.47,55.61 L90.78,51.92 C93.1714699,48.4461916 94.8036354,44.5071868 95.57,40.36 L100.79,40.36 L100.79,29.36 L95.57,29.36 L95.55,29.39 Z M65.91,57.16 L65.91,57.16 C53.6161415,57.16 43.65,47.1938585 43.65,34.9 C43.65,22.6061415 53.6161415,12.64 65.91,12.64 L65.91,12.64 C78.2038585,12.64 88.17,22.6061415 88.17,34.9 C88.17,47.1938585 78.2038585,57.16 65.91,57.16 L65.91,57.16 Z" id="Shape"></path>
                <path d="M43.83,73.9 L47.11,72.5 L43.65,64.38 L40.37,65.78 C38.960547,63.7965137 37.2059711,62.0825844 35.19,60.72 L36.52,57.41 L28.33,54.12 L27,57.43 C25.8763294,57.2430493 24.7391163,57.1493964 23.6,57.15 C22.3181899,57.149839 21.039212,57.2703709 19.78,57.51 L18.38,54.23 L10.26,57.69 L11.66,60.97 C9.68256394,62.3752491 7.97231906,64.1227469 6.61,66.13 L3.3,64.8 L0,72.99 L3.31,74.32 C2.90299648,76.7116166 2.92670251,79.1567243 3.38,81.54 L0.1,82.94 L3.57,91.06 L6.85,89.66 C8.25492071,91.6377166 10.0024735,93.3480153 12.01,94.71 L10.68,98.02 L18.87,101.31 L20.2,98 C21.3236706,98.1869507 22.4608837,98.2806036 23.6,98.28 C24.8818101,98.280161 26.160788,98.1596291 27.42,97.92 L28.82,101.2 L36.94,97.74 L35.54,94.46 C37.5179977,93.0554084 39.2283504,91.3078005 40.59,89.3 L43.9,90.63 L47.19,82.44 L43.88,81.11 C44.2939109,78.7229551 44.2769769,76.2810748 43.83,73.9 L43.83,73.9 Z M29.03,90.41 C27.3234746,91.1410159 25.4865051,91.5186152 23.63,91.52 L23.63,91.52 C16.0112319,91.52 9.835,85.3437681 9.835,77.725 C9.835,70.1062319 16.0112319,63.93 23.63,63.93 L23.63,63.93 C30.1831108,63.9333417 35.8287902,68.548015 37.1358721,74.9694486 C38.4429539,81.3908822 35.0503842,87.8452898 29.02,90.41 L29.03,90.41 Z" id="Shape"></path>
            </g>
        </g>
    </g>
</svg>